<svg width="327" height="101" viewBox="0 0 327 101" fill="none" xmlns="http://www.w3.org/2000/svg">
<g clip-path="url(#clip0_1_2)">
<path d="M306.962 82.3786C307.488 82.0692 308.292 81.8835 309.344 81.9145C310.891 81.8835 312.407 82.2858 313.738 83.0593L315.099 80.3365C314.295 79.8724 313.428 79.563 312.531 79.4083C311.51 79.1608 310.458 79.037 309.375 79.037C307.302 79.037 305.693 79.4702 304.486 80.3365C303.342 81.11 302.63 82.4095 302.692 83.8018C302.692 84.9157 302.97 85.782 303.558 86.4009C304.115 87.0197 304.827 87.4838 305.631 87.7004C306.652 88.0098 307.673 88.2263 308.725 88.3501C309.622 88.4739 310.489 88.6595 311.324 88.938C311.819 89.0927 312.16 89.5568 312.16 90.0518C312.16 91.1657 311.077 91.7226 308.942 91.7226C307.983 91.7226 307.023 91.5679 306.095 91.3204C305.229 91.0729 304.394 90.7016 303.62 90.2065L302.259 92.9293C303.125 93.4863 304.084 93.9194 305.105 94.1669C306.281 94.4764 307.519 94.662 308.756 94.6311C310.891 94.6311 312.562 94.1979 313.799 93.3625C314.975 92.6199 315.687 91.3204 315.656 89.9281C315.656 88.8452 315.377 88.0098 314.821 87.4219C314.264 86.834 313.583 86.4009 312.809 86.1843C311.819 85.8749 310.829 85.6583 309.777 85.5345C308.849 85.3798 307.952 85.1632 307.054 84.8848C306.528 84.6991 306.188 84.2041 306.188 83.6471C306.188 83.0902 306.497 82.5952 306.962 82.3786ZM290.006 79.563C289.14 79.9033 288.366 80.4603 287.778 81.141V79.1608H284.375V94.4454H287.964V86.7412C287.964 85.2561 288.335 84.1113 289.109 83.3377C289.882 82.5642 290.903 82.162 292.203 82.131C293.379 82.131 294.276 82.4714 294.895 83.1521C295.514 83.8328 295.823 84.8229 295.823 86.1843V94.4764H299.412V85.7202C299.412 83.5234 298.824 81.8526 297.648 80.7387C296.473 79.6249 294.926 79.037 293.007 79.037C291.955 79.0061 290.934 79.1917 290.006 79.563ZM264.666 86.834C264.635 88.2573 265.006 89.6496 265.718 90.8872C266.398 92.063 267.389 93.0531 268.595 93.6719C269.895 94.3526 271.318 94.6929 272.772 94.662C274.226 94.6929 275.681 94.3526 277.011 93.6719C278.218 93.0221 279.239 92.063 279.889 90.8872C281.281 88.3811 281.281 85.3179 279.889 82.8117C279.208 81.636 278.187 80.6768 277.011 80.0271C275.712 79.3464 274.257 79.0061 272.803 79.037C271.349 79.0061 269.926 79.3773 268.626 80.0271C267.42 80.6768 266.429 81.636 265.749 82.8117C265.006 84.0184 264.635 85.4108 264.666 86.834ZM269.554 83.3687C270.39 82.5023 271.566 82.0073 272.803 82.0692C274.01 82.0382 275.217 82.5023 276.083 83.3687C276.949 84.2969 277.413 85.5655 277.382 86.834C277.382 88.2882 276.949 89.433 276.083 90.2994C275.217 91.1657 274.041 91.6608 272.834 91.5989C271.627 91.6298 270.452 91.1657 269.585 90.2994C268.719 89.433 268.286 88.2573 268.286 86.834C268.224 85.5345 268.688 84.2969 269.554 83.3687ZM246.04 79.2845H243.533V82.131H246.04V89.4949C246.04 91.1657 246.504 92.4652 247.432 93.3315C248.36 94.1979 249.66 94.6311 251.33 94.6311C251.98 94.6311 252.599 94.5382 253.218 94.3526C253.775 94.1979 254.301 93.9504 254.765 93.5791L253.775 91.0419C253.187 91.4751 252.475 91.6917 251.764 91.6608C251.176 91.6917 250.619 91.4751 250.217 91.0729C249.814 90.6088 249.629 89.99 249.66 89.3712V82.1001H253.713V79.2536H249.629V75.7882H246.071V79.2845H246.04ZM261.262 79.1917H257.673V94.4764H261.231L261.262 79.1917ZM261.108 72.9726C260.644 72.6013 260.056 72.3848 259.468 72.3848C258.88 72.3538 258.292 72.5704 257.859 73.0036C257.426 73.4058 257.178 73.9627 257.178 74.5506C257.178 75.1385 257.426 75.6954 257.859 76.0667C258.787 76.9021 260.21 76.9021 261.139 76.0358C261.541 75.6026 261.788 75.0457 261.757 74.4578C261.757 73.8699 261.541 73.313 261.108 72.9726ZM221.411 73.2511H217.853V94.4764H221.411V73.2511ZM240.873 79.1917H237.314V86.9268C237.314 88.412 236.943 89.5568 236.17 90.3303C235.365 91.1348 234.251 91.5679 233.137 91.5061C231.993 91.5061 231.095 91.1657 230.476 90.516C229.858 89.8662 229.548 88.8142 229.548 87.4219V79.1917H225.959V87.9169C225.959 90.1447 226.547 91.8155 227.723 92.9293C228.898 94.0432 230.507 94.6311 232.549 94.6311C233.509 94.6311 234.437 94.4454 235.303 94.0741C236.139 93.7338 236.881 93.1768 237.469 92.4961V94.4145H240.873V79.1917ZM210.489 80.0271C209.189 79.3464 207.735 79.0061 206.281 79.037C204.827 79.0061 203.403 79.3773 202.104 80.0271C200.897 80.6768 199.907 81.636 199.226 82.8117C197.834 85.3179 197.834 88.3811 199.226 90.8872C199.907 92.063 200.897 93.0531 202.104 93.6719C203.403 94.3526 204.827 94.6929 206.281 94.662C207.735 94.6929 209.189 94.3526 210.52 93.6719C211.726 93.0221 212.748 92.063 213.397 90.8872C214.79 88.3811 214.79 85.3179 213.397 82.8117C212.717 81.6051 211.696 80.6459 210.489 80.0271ZM206.281 82.0382C207.488 82.0073 208.694 82.4714 209.53 83.3377C210.396 84.266 210.86 85.5345 210.829 86.8031C210.829 88.2573 210.396 89.4021 209.53 90.2684C208.663 91.1348 207.488 91.6298 206.281 91.5679C205.074 91.5989 203.899 91.1348 203.032 90.2684C202.166 89.4021 201.733 88.2263 201.733 86.8031C201.671 85.5345 202.135 84.266 203.032 83.3377C203.899 82.4714 205.074 82.0073 206.281 82.0382ZM190.13 79.0061C188.057 79.0061 186.417 79.4392 185.241 80.3056C184.097 81.0791 183.385 82.3786 183.447 83.7709C183.447 84.8848 183.725 85.7511 184.313 86.3699C184.87 86.9887 185.582 87.4528 186.386 87.6694C187.407 87.9788 188.428 88.1954 189.48 88.3192C190.377 88.4429 191.244 88.6286 192.11 88.907C192.605 89.0617 192.946 89.5259 192.946 90.0209C192.946 91.1348 191.863 91.6917 189.728 91.6917C188.769 91.6917 187.809 91.537 186.881 91.2895C186.015 91.0419 185.179 90.6707 184.406 90.1756L183.045 92.8984C183.911 93.4553 184.87 93.8885 185.891 94.136C187.067 94.4454 188.304 94.6311 189.542 94.6001C191.677 94.6001 193.348 94.1669 194.585 93.3315C195.761 92.589 196.473 91.2895 196.442 89.8971C196.442 88.8142 196.163 87.9788 195.606 87.3909C195.049 86.8031 194.369 86.3699 193.595 86.1533C192.605 85.8439 191.584 85.6273 190.563 85.5036C189.635 85.3489 188.738 85.1323 187.84 84.8538C187.314 84.6682 186.974 84.1731 186.974 83.6162C187.005 83.0902 187.314 82.5952 187.809 82.3786C188.335 82.0692 189.14 81.9145 190.192 81.9145C191.739 81.8835 193.255 82.2858 194.585 83.0593L195.978 80.3365C195.173 79.8724 194.307 79.563 193.41 79.4083C192.265 79.1298 191.213 79.0061 190.13 79.0061ZM173.7 79.0061C171.101 79.0061 169.307 79.8105 168.286 81.4194V79.1917H164.882V94.4764H168.441V87.0815C168.441 85.5655 168.843 84.3897 169.616 83.5853C170.39 82.7808 171.473 82.3786 172.865 82.3476L173.7 82.4405V79.0061ZM160.458 82.7808C159.839 81.6051 158.88 80.6459 157.735 80.0271C156.528 79.3464 155.136 79.0061 153.744 79.037C152.321 79.0061 150.928 79.3464 149.66 80.0271C148.484 80.6768 147.494 81.636 146.844 82.8117C146.163 84.0494 145.792 85.4417 145.823 86.834C145.792 88.2573 146.163 89.6496 146.875 90.8872C147.556 92.0939 148.608 93.0531 149.845 93.6719C152.351 94.8476 155.229 94.9714 157.828 94.0122C158.849 93.61 159.746 92.9912 160.427 92.1558L158.509 89.959C157.426 91.0729 155.91 91.6917 154.363 91.6298C153.187 91.6608 152.042 91.3204 151.052 90.6707C150.155 90.0209 149.567 89.0617 149.412 87.9788H161.386L161.448 86.9268C161.479 85.4726 161.139 84.0494 160.458 82.7808ZM150.804 82.9046C151.609 82.2239 152.661 81.8526 153.713 81.9145C154.765 81.8835 155.817 82.2548 156.621 82.9355C157.395 83.6162 157.921 84.5754 158.014 85.6273H149.35C149.505 84.5444 150.031 83.5853 150.804 82.9046ZM140.78 80.7387C139.604 79.5939 138.057 79.037 136.139 79.037C135.118 79.037 134.066 79.2226 133.106 79.5939C132.24 79.9343 131.467 80.4912 130.879 81.1719V79.1917H127.475V94.4764H131.033V86.7412C131.033 85.2561 131.405 84.1113 132.178 83.3377C132.952 82.5642 133.973 82.162 135.272 82.131C136.448 82.131 137.345 82.4714 137.964 83.1521C138.583 83.8328 138.892 84.8229 138.892 86.1843V94.4764H142.45V85.7202C142.543 83.5234 141.955 81.8526 140.78 80.7387ZM113.335 82.162H115.842V89.5259C115.842 91.1967 116.306 92.4962 117.234 93.3625C118.162 94.2288 119.462 94.662 121.132 94.662C121.782 94.662 122.401 94.5692 123.02 94.3835C123.577 94.2288 124.103 93.9813 124.567 93.61L123.577 91.0419C122.989 91.4751 122.277 91.6917 121.566 91.6608C120.978 91.6917 120.421 91.4751 120.019 91.0729C119.616 90.6088 119.431 89.99 119.462 89.3712V82.1001H123.546V79.2536H119.431V75.7882H115.873V79.2536H113.366L113.335 82.162ZM112.222 79.0061C109.623 79.0061 107.828 79.8105 106.807 81.4194V79.1917H103.403V94.4764H106.962V87.0815C106.962 85.5655 107.364 84.3897 108.137 83.5853C108.911 82.7808 109.994 82.3786 111.386 82.3476L112.222 82.4405V79.0061ZM88.9542 82.4095C89.7587 82.1311 90.625 82.0073 91.4604 82.0073C92.729 82.0073 93.6572 82.2858 94.3069 82.8736C94.9567 83.4615 95.2661 84.266 95.2661 85.3489V85.5655H91.3057C89.1089 85.5655 87.5 85.9677 86.5099 86.8031C85.4889 87.6075 84.9319 88.8142 84.9629 90.1137C84.9629 90.9491 85.1794 91.7845 85.6436 92.4652C86.1386 93.1768 86.8502 93.7338 87.6547 94.0741C89.5421 94.8476 91.677 94.8476 93.5643 94.1051C94.3379 93.7957 94.9876 93.2697 95.4208 92.589V94.4454H98.7933V85.5036C98.7933 83.3377 98.2054 81.7288 96.9988 80.615C95.7921 79.5011 94.0903 79.0061 91.8317 79.0061C90.625 79.0061 89.4183 79.1608 88.2735 79.5011C87.2215 79.7796 86.2624 80.2746 85.396 80.8934L86.7884 83.5234C87.4381 82.9974 88.1807 82.6261 88.9542 82.4095ZM88.4901 89.9281C88.4901 88.5976 89.5111 87.9169 91.5842 87.9169H95.297V89.6806C95.0495 90.4231 94.5235 91.0419 93.8119 91.4442C93.0693 91.8773 92.2648 92.0939 91.3985 92.063C90.625 92.0939 89.8824 91.9083 89.2327 91.4751C88.7376 91.1348 88.4592 90.5469 88.4901 89.9281ZM78.8985 79.9961C77.6918 79.3155 76.2995 78.9751 74.9072 79.0061C73.9171 79.0061 72.927 79.1917 72.0297 79.563C71.1943 79.9033 70.4208 80.4603 69.8329 81.1719V79.1608H66.4295V99.9838H69.9876V92.589C71.1943 93.9504 72.8032 94.662 74.8762 94.6311C76.2686 94.662 77.6299 94.3216 78.8676 93.6719C80.0433 93.0221 80.9715 92.0939 81.6213 90.9182C82.302 89.6496 82.6423 88.2263 82.6114 86.8031C82.6423 85.3798 82.302 83.9566 81.6213 82.7189C81.0334 81.5741 80.0743 80.615 78.8985 79.9961ZM74.5049 82.0382C75.7116 82.0073 76.9183 82.4714 77.7537 83.3377C78.62 84.266 79.0842 85.5345 79.0223 86.8031C79.0223 88.2573 78.5891 89.4021 77.7537 90.2684C76.9183 91.1348 75.7116 91.6298 74.5049 91.5679C73.7005 91.5679 72.896 91.3823 72.1844 90.9801C71.5037 90.5778 70.9158 90.0209 70.5446 89.3093C69.7401 87.7313 69.7401 85.8749 70.5446 84.2969C70.9158 83.5853 71.5037 82.9974 72.1844 82.5952C72.896 82.2239 73.7005 82.0382 74.5049 82.0382Z" fill="#004499"/>
<path d="M11.5099 23.7461V19.6001H0V78.3563H12.8713V60.4108C16.9245 62.886 20.5446 64.1236 23.7933 64.1236C30.5693 64.1236 35.5817 61.4009 38.7995 55.9244C41.3985 51.7783 42.729 46.8278 42.729 41.1038C42.729 33.9256 40.9035 28.3254 37.2525 24.3031C33.8799 20.4046 29.3936 18.4553 23.7933 18.4553C19.1213 18.4553 15.4084 19.6929 12.6547 22.1682L11.5099 23.7461ZM21.6584 27.6137L23.3911 27.8303C28.0941 29.0061 30.4455 33.4306 30.4455 41.1038C30.4455 44.8786 29.7339 48.0036 28.3106 50.4788C26.6089 53.3254 24.2574 54.7796 21.2562 54.7796C19.0594 54.7796 17.1101 53.9132 15.4394 52.2424C13.3663 49.891 12.3144 46.3328 12.3144 41.5061C12.3144 37.0815 13.2116 33.6162 15.0371 31.141C16.8317 28.7895 19.0594 27.6137 21.6584 27.6137ZM79.2079 19.4454V62.9169H91.8936V19.4454H79.2079ZM60.8601 23.9009V19.4454H48.3911V62.9169H61.2624V38.5358C61.2624 35.9367 61.8502 34.1422 62.995 33.0902C63.8923 32.2858 65.9963 31.5741 69.245 30.9553L73.5458 30.3365V19.0432C68.5953 19.4145 64.3874 21.0543 60.8601 23.9009ZM92.4505 8.52338C92.4505 6.69788 91.7698 4.96521 90.5012 3.66571C89.1398 2.3662 87.3144 1.65457 85.427 1.68551C83.6015 1.68551 81.8688 2.39714 80.5693 3.66571C79.3317 4.96521 78.62 6.72882 78.62 8.52338C78.5891 10.4108 79.3007 12.2053 80.5693 13.5976C81.8688 14.8353 83.6324 15.5469 85.427 15.5469C87.3144 15.5778 89.1089 14.8662 90.5012 13.5976C91.8007 12.2053 92.4814 10.3798 92.4505 8.52338ZM134.406 24.1174C130.353 20.3427 125.433 18.4553 119.585 18.4553C112.562 18.4553 107.024 20.8068 103.001 25.4788C99.3502 29.7796 97.5248 35.287 97.5248 42.063C97.5248 50.1075 100.124 56.2338 105.322 60.4108C109.375 63.5358 114.047 65.0828 119.369 65.0828C123.886 65.0828 128.311 63.7523 132.024 61.2152L134.004 59.4516C131.281 57.0382 129.363 53.8204 128.527 50.2932H128.156L127.166 51.8711C125.495 53.7585 123.051 54.8414 120.514 54.8105C117.389 54.8105 114.944 53.3872 113.119 50.5098C111.541 48.0345 110.767 45.0952 110.767 41.7226C110.767 38.4739 111.479 35.6273 112.902 33.1521C114.573 30.0271 116.986 28.4491 120.111 28.4491C122.061 28.4491 123.7 28.9132 124.969 29.8105C126.33 30.8934 127.444 32.2239 128.28 33.74L128.682 33.9565C129.827 30.2437 131.745 26.8712 134.406 24.1174ZM184.963 0.509766V62.9169H198.205V0.509766H184.963ZM178.899 52.2115L169.152 47.3538C166.677 52.4281 162.964 54.9343 158.014 54.9343C154.765 54.9343 152.228 53.8204 150.433 51.6236C148.855 49.5506 148.082 46.9825 148.082 43.9813H179.301C179.301 35.287 177.29 28.7276 173.236 24.3031C169.338 20.157 164.047 18.084 157.426 18.084C149.505 18.084 143.595 20.8068 139.697 26.2523C136.417 30.5531 134.808 35.8749 134.808 42.2486C134.808 49.3959 136.912 54.9961 141.058 59.0494C145.08 63.0716 150.402 65.0828 157.054 65.0828C163.428 65.0828 168.936 63.0098 173.608 58.8637C175.588 56.8216 177.351 54.5939 178.899 52.2115ZM150.804 30.1818C152.382 28.2944 154.765 27.2115 157.24 27.2424C159.839 27.2424 162.005 28.0778 163.676 29.7486C165.006 31.1719 165.78 33.2759 166.027 35.9986H148.082C148.979 33.183 149.876 31.2338 150.804 30.1818ZM219.276 19.4763H206.405V62.9479H219.276V19.4763ZM218.286 13.5976C219.585 12.2362 220.297 10.4108 220.266 8.52338C220.328 4.81051 217.358 1.71645 213.614 1.68551C213.552 1.68551 213.459 1.68551 213.397 1.68551C211.572 1.62363 209.808 2.3662 208.54 3.66571C207.116 5.08897 206.405 6.72882 206.405 8.52338C206.374 10.4108 207.178 12.2672 208.54 13.5976C209.839 14.8971 211.603 15.5778 213.397 15.5469C215.223 15.516 216.986 14.8353 218.286 13.5976ZM267.265 33.2759C267.265 29.7796 266.894 27.1187 266.12 25.2932C265.347 23.0964 263.738 21.2709 261.634 20.2189C259.22 19.0122 256.528 18.4244 253.837 18.4553C251.083 18.4553 248.36 18.9813 245.823 20.0333C244.214 20.9615 242.729 22.1372 241.522 23.5296V19.6001H228.465V62.9169H241.337V39.5259C241.337 35.8749 241.584 33.3996 242.11 32.1001C243.162 29.9033 245.173 28.7895 248.174 28.7895C251.176 28.7895 253.125 29.9033 254.022 32.1001C254.394 33.2759 254.61 35.4417 254.61 38.5358V62.9169H267.265V33.2759ZM311.386 25.0147C311.355 24.9838 311.355 24.9838 311.355 24.9528L310.767 24.3031C309.53 23.0036 308.137 21.8897 306.621 20.9615C303.373 19.0432 299.474 18.0531 294.957 18.0531C287.16 18.0531 281.219 20.7759 277.166 26.2214C274.072 30.5221 272.494 35.8439 272.494 42.2177C272.494 49.365 274.505 54.9652 278.527 59.0184C282.395 62.8551 287.438 64.8662 293.657 65.0518H294.554C299.103 65.0518 303.125 64.0927 306.621 62.1434C308.261 61.2152 309.777 60.1013 311.139 58.8018C311.2 58.74 311.293 58.6471 311.386 58.5853C312.778 57.2548 314.449 55.089 316.429 52.1496L306.652 47.2919C306.652 47.3229 306.652 47.3538 306.621 47.3538C304.177 52.3662 300.464 54.8724 295.545 54.8724C294.926 54.8724 294.307 54.8414 293.688 54.7486C291.429 54.4392 289.387 53.3254 287.933 51.5927C286.386 49.5197 285.613 46.9516 285.613 43.9504H316.986C316.646 35.5345 314.759 29.2226 311.386 25.0147ZM288.335 30.1818C289.666 28.5419 291.584 27.5209 293.688 27.3353C294.059 27.3043 294.4 27.2734 294.771 27.2734C297.494 27.2734 299.629 28.1088 301.207 29.7796C302.506 31.2028 303.28 33.3068 303.558 36.0296H285.798C286.293 33.4306 287.16 31.4813 288.335 30.1818Z" fill="#0068EF"/>
<path d="M326.33 15.4541C326.33 13.8142 325.681 12.2672 324.505 11.1533C323.391 9.94665 321.844 9.29689 320.204 9.32783C316.832 9.38972 314.14 12.0815 314.078 15.4541C314.016 17.0939 314.697 18.6719 315.903 19.7548C317.017 20.9306 318.595 21.5803 320.204 21.5803C323.577 21.5184 326.269 18.8266 326.33 15.4541ZM325.186 15.4541C325.248 16.8155 324.722 18.1459 323.762 19.136C322.865 20.1261 321.566 20.714 320.235 20.683C317.42 20.683 315.13 18.3934 315.161 15.5778C315.161 15.5469 315.161 15.516 315.161 15.485C315.13 14.1546 315.656 12.886 316.584 11.9887C317.543 10.9677 318.843 10.4108 320.235 10.4108C321.597 10.3798 322.865 10.9677 323.762 11.9887C324.691 12.8551 325.186 14.1236 325.186 15.4541ZM321.256 15.9801C322.37 15.8254 322.958 15.1137 322.927 13.8761C322.927 12.5766 322.153 11.9268 320.575 11.9268H317.976V19.1051H318.998V15.9801H320.049L321.999 19.136H323.174L321.256 15.9801ZM321.906 13.8761C321.906 14.6806 321.349 15.0518 320.235 15.0518H319.059V12.8551H320.39C321.38 12.8551 321.906 13.1954 321.906 13.8761Z" fill="#0068EF"/>
<path d="M47.1535 84.6372C46.9988 84.4516 46.7203 84.4207 46.5346 84.5754L44.4616 86.6484C44.276 86.8031 44.245 87.1125 44.4307 87.2981L44.4616 87.3291L50.8354 93.6719C51.547 94.3526 51.547 95.4664 50.8663 96.1781L50.8354 96.209C50.495 96.5494 50.0309 96.735 49.5668 96.735C49.0718 96.7659 48.6077 96.5494 48.2983 96.209L47.1225 95.0333C46.9369 94.8786 46.6894 94.8786 46.5037 95.0333L44.5854 96.9516C44.3688 97.1372 44.3069 97.4466 44.4616 97.6942L45.4517 98.7152C46.5037 99.7981 47.9889 100.448 49.5049 100.448C52.5371 100.51 55.0433 98.1273 55.1052 95.0952C55.1052 95.0023 55.1052 94.9095 55.1052 94.8167C55.1052 93.3006 54.4864 91.8464 53.4035 90.7944L47.1535 84.6372ZM33.6015 73.3749C32.0854 73.313 30.6312 73.9008 29.6101 74.9838C28.5272 76.0357 27.9703 77.49 28.0322 78.9751C28.0322 80.4912 28.651 81.9763 29.7648 83.0283L35.953 89.2164C36.1077 89.3711 36.3861 89.4021 36.5718 89.2783L38.6448 87.2362C38.8614 87.0506 38.8614 86.834 38.6139 86.5556L32.2401 80.2127C31.8997 79.8724 31.7141 79.4083 31.7141 78.9442C31.7141 78.4491 31.8997 77.985 32.2401 77.6756C32.5804 77.3353 33.0446 77.1496 33.5087 77.1496C33.9728 77.1496 34.4369 77.3353 34.7772 77.6756L35.9839 78.8823C36.1696 79.037 36.4171 79.037 36.6027 78.8823L38.521 76.964C38.7995 76.6855 38.8614 76.438 38.6448 76.1905L37.6547 75.2004C36.5718 73.9937 35.1176 73.3749 33.6015 73.3749Z" fill="#004499"/>
<path d="M30.8787 89.8353L29.8577 90.8254C28.7748 91.8773 28.1559 93.3625 28.125 94.8786C28.0631 96.3947 28.651 97.8489 29.703 98.9009H29.7339C30.7859 99.9838 32.2401 100.572 33.7252 100.51C35.2413 100.51 36.7265 99.86 37.7785 98.7771L43.9356 92.589C44.1832 92.3724 44.2141 92.1558 43.9975 91.9702L41.9245 89.8971C41.7079 89.7424 41.4295 89.7424 41.2438 89.8971L34.901 96.24C34.5606 96.5803 34.0965 96.766 33.6324 96.7969C33.1374 96.7969 32.6733 96.6112 32.3639 96.24C32.0235 95.8996 31.8379 95.4355 31.8379 94.9714C31.8379 94.4763 32.0235 94.0122 32.3639 93.7028L33.5705 92.4961C33.7252 92.3105 33.7252 92.032 33.5396 91.8773L31.6213 89.959C31.3428 89.7115 31.0953 89.6496 30.8787 89.8353ZM39.3564 81.3266C39.1708 81.4813 39.1399 81.7598 39.2946 81.9454L41.3366 84.0494C41.5532 84.2041 41.8317 84.2041 42.0173 84.0184L48.3911 77.6756C49.0718 76.964 50.2166 76.964 50.9282 77.6447C50.9282 77.6447 50.9282 77.6447 50.9592 77.6756C51.6708 78.3563 51.6708 79.4702 50.9901 80.1818L50.9592 80.2127L49.7834 81.4194C49.6287 81.5741 49.5978 81.8216 49.7525 82.0073L49.7834 82.0382L51.7017 83.9566C51.8874 84.1731 52.1968 84.235 52.4752 84.1113L53.4653 83.0902C54.5792 82.0382 55.198 80.5531 55.198 79.037C55.2599 76.0048 52.8465 73.4986 49.8144 73.4367C49.7525 73.4367 49.6597 73.4367 49.5978 73.4367C48.0817 73.4367 46.5965 74.0556 45.5446 75.1694L39.3564 81.3266Z" fill="#0168EE"/>
</g>
<defs>
<clipPath id="clip0_1_2">
<rect width="326.33" height="100" fill="white" transform="translate(0 0.509766)"/>
</clipPath>
</defs>
</svg>
