<svg width="333" height="333" viewBox="0 0 333 333" fill="none" xmlns="http://www.w3.org/2000/svg">
<path d="M166.286 0L264.026 31.7577L324.432 114.9V217.671L264.026 300.813L166.286 332.571L68.5453 300.813L8.1386 217.671V114.9L68.5453 31.7577L166.286 0Z" fill="url(#paint0_linear_82_103)"/>
<path d="M72.1819 37.2495L166.107 6.77271L259.855 37.4277L166.107 67.9045L72.1819 37.2495Z" fill="#000072"/>
<path d="M72.1819 37.2495L166.107 6.77271L259.855 37.4277L166.107 67.9045L72.1819 37.2495Z" fill="url(#paint1_linear_82_103)" fill-opacity="0.7"/>
<path d="M56.3196 174.84L166.107 67.9044L14.2581 117.095L56.3196 174.84Z" fill="#000072"/>
<path d="M56.3196 174.84L166.107 67.9044L14.2581 117.095L56.3196 174.84Z" fill="url(#paint2_linear_82_103)"/>
<path d="M56.3196 174.84L166.107 67.9044L14.2581 117.095L56.3196 174.84Z" fill="url(#paint3_linear_82_103)" fill-opacity="0.7"/>
<path d="M166.107 67.9044L72.1817 37.2495L14.2581 117.095L166.107 67.9044Z" fill="#000072"/>
<path d="M166.107 67.9044L72.1817 37.2495L14.2581 117.095L166.107 67.9044Z" fill="url(#paint4_linear_82_103)" fill-opacity="0.7"/>
<path d="M166.286 265.202L317.957 215.833L259.676 295.678L166.286 265.202Z" fill="#000072"/>
<path d="M166.286 265.202L317.957 215.833L259.676 295.678L166.286 265.202Z" fill="url(#paint5_linear_82_103)" fill-opacity="0.7"/>
<path d="M271.083 151.315L166.286 265.202L317.957 215.833L271.083 151.315Z" fill="#000072"/>
<path d="M271.083 151.315L166.286 265.202L317.957 215.833L271.083 151.315Z" fill="url(#paint6_linear_82_103)" fill-opacity="0.7"/>
<path d="M271.083 151.315L166.286 265.202L317.957 215.833L271.083 151.315Z" fill="url(#paint7_linear_82_103)" fill-opacity="0.8"/>
<path d="M14.2583 215.833L56.3198 174.841L166.286 265.202L72.182 295.678L14.2583 215.833Z" fill="#000072"/>
<path d="M14.2583 215.833L56.3198 174.841L166.286 265.202L72.182 295.678L14.2583 215.833Z" fill="url(#paint8_linear_82_103)" fill-opacity="0.9"/>
<path d="M271.083 151.315L317.778 117.273L259.855 37.4277L166.107 67.9045L271.083 151.315Z" fill="#000072"/>
<path d="M271.083 151.315L317.778 117.273L259.855 37.4277L166.107 67.9045L271.083 151.315Z" fill="url(#paint9_linear_82_103)" fill-opacity="0.7"/>
<path d="M317.778 117.273L271.083 151.315L317.957 215.833L317.778 117.273Z" fill="#000072"/>
<path d="M317.778 117.273L271.083 151.315L317.957 215.833L317.778 117.273Z" fill="url(#paint10_linear_82_103)" fill-opacity="0.7"/>
<path d="M56.3198 174.841L14.2583 215.833V117.095L56.3198 174.841Z" fill="#000072"/>
<path d="M56.3198 174.841L14.2583 215.833V117.095L56.3198 174.841Z" fill="url(#paint11_linear_82_103)" fill-opacity="0.9"/>
<path d="M166.285 265.201L271.083 151.315L166.107 67.9044L56.3196 174.84L166.285 265.201Z" fill="#000072"/>
<path d="M166.285 265.201L271.083 151.315L166.107 67.9044L56.3196 174.84L166.285 265.201Z" fill="url(#paint12_linear_82_103)" fill-opacity="0.7"/>
<path d="M166.285 265.201L271.083 151.315L166.107 67.9044L56.3196 174.84L166.285 265.201Z" fill="url(#paint13_linear_82_103)" fill-opacity="0.7"/>
<path d="M166.286 265.202L72.1819 295.678L166.107 326.155L259.676 295.678L166.286 265.202Z" fill="#000072"/>
<path d="M166.286 265.202L72.1819 295.678L166.107 326.155L259.676 295.678L166.286 265.202Z" fill="url(#paint14_linear_82_103)" fill-opacity="0.9"/>
<path d="M72.36 295.678L166.285 265.201M72.36 295.678L14.2581 215.833M72.36 295.678L166.107 326.155L259.498 295.5M317.956 215.833L271.083 151.315M317.956 215.833L317.6 117.273M317.956 215.833L259.498 295.5M317.956 215.833L166.285 265.201M271.083 151.315L317.6 117.273M271.083 151.315L166.107 67.9045M271.083 151.315L166.285 265.201M317.6 117.273L259.854 37.4277M259.498 295.5L166.285 265.201M166.285 265.201L56.8542 175.375L14.4363 117.095M14.4363 117.095L166.107 67.9045M14.4363 117.095L14.2581 215.833M14.4363 117.095L72.7164 37.4277M166.107 67.9045L14.2581 215.833M166.107 67.9045L72.7164 37.4277M166.107 67.9045L259.854 37.4277M72.7164 37.4277L166.107 6.77271L259.854 37.4277" stroke="url(#paint15_linear_82_103)" stroke-width="6.54955"/>
<defs>
<linearGradient id="paint0_linear_82_103" x1="392.505" y1="162.595" x2="-59.5435" y2="162.595" gradientUnits="userSpaceOnUse">
<stop stop-color="#555454"/>
<stop offset="0.3" stop-color="#9A9A9A"/>
<stop offset="0.5" stop-color="#E0E0E0"/>
<stop offset="0.697174" stop-color="#9A9A9A"/>
<stop offset="1" stop-color="#555454"/>
</linearGradient>
<linearGradient id="paint1_linear_82_103" x1="14.7929" y1="6.77271" x2="297.282" y2="6.7727" gradientUnits="userSpaceOnUse">
<stop stop-color="#000072" stop-opacity="0"/>
<stop offset="1" stop-color="#F5F0E9"/>
</linearGradient>
<linearGradient id="paint2_linear_82_103" x1="75.3898" y1="130.818" x2="43.8437" y2="229.2" gradientUnits="userSpaceOnUse">
<stop stop-color="#951C1E" stop-opacity="0"/>
<stop offset="1" stop-color="#951C1E"/>
</linearGradient>
<linearGradient id="paint3_linear_82_103" x1="103.55" y1="113.352" x2="325.442" y2="-39.3881" gradientUnits="userSpaceOnUse">
<stop stop-color="#F5F0E9" stop-opacity="0"/>
<stop offset="1" stop-color="#F5F0E9"/>
</linearGradient>
<linearGradient id="paint4_linear_82_103" x1="371.246" y1="94.1038" x2="72.0035" y2="26.5559" gradientUnits="userSpaceOnUse">
<stop offset="0.424631" stop-color="#F5F0E9"/>
<stop offset="1" stop-color="#000072" stop-opacity="0"/>
</linearGradient>
<linearGradient id="paint5_linear_82_103" x1="287.836" y1="269.479" x2="131.175" y2="273.222" gradientUnits="userSpaceOnUse">
<stop stop-color="#000072" stop-opacity="0"/>
<stop offset="1" stop-color="#951C1E"/>
</linearGradient>
<linearGradient id="paint6_linear_82_103" x1="300.847" y1="115.669" x2="271.439" y2="219.041" gradientUnits="userSpaceOnUse">
<stop offset="0.0535586" stop-color="#F5F0E9"/>
<stop offset="1" stop-color="#000072" stop-opacity="0"/>
</linearGradient>
<linearGradient id="paint7_linear_82_103" x1="128.323" y1="293.896" x2="268.053" y2="215.12" gradientUnits="userSpaceOnUse">
<stop stop-color="#951C1E"/>
<stop offset="1" stop-color="#000072" stop-opacity="0"/>
</linearGradient>
<linearGradient id="paint8_linear_82_103" x1="222.962" y1="130.64" x2="49.5472" y2="286.411" gradientUnits="userSpaceOnUse">
<stop stop-color="#000072" stop-opacity="0"/>
<stop offset="1" stop-color="#A40B0D"/>
</linearGradient>
<linearGradient id="paint9_linear_82_103" x1="128.145" y1="191.95" x2="284.272" y2="37.4277" gradientUnits="userSpaceOnUse">
<stop stop-color="#000072" stop-opacity="0"/>
<stop offset="1" stop-color="#F5F0E9"/>
</linearGradient>
<linearGradient id="paint10_linear_82_103" x1="305.481" y1="90.8958" x2="300.847" y2="249.518" gradientUnits="userSpaceOnUse">
<stop stop-color="#F5F0E9"/>
<stop offset="1" stop-color="#000072" stop-opacity="0"/>
</linearGradient>
<linearGradient id="paint11_linear_82_103" x1="45.9827" y1="53.4682" x2="14.2583" y2="241.319" gradientUnits="userSpaceOnUse">
<stop stop-color="#000072" stop-opacity="0"/>
<stop offset="1" stop-color="#A40B0D"/>
</linearGradient>
<linearGradient id="paint12_linear_82_103" x1="193.911" y1="166.464" x2="84.123" y2="275.182" gradientUnits="userSpaceOnUse">
<stop stop-color="#000072" stop-opacity="0"/>
<stop offset="0.835723" stop-color="#A40B0D"/>
</linearGradient>
<linearGradient id="paint13_linear_82_103" x1="313.857" y1="32.7938" x2="157.552" y2="182.504" gradientUnits="userSpaceOnUse">
<stop offset="0.240449" stop-color="#F5F0E9"/>
<stop offset="1" stop-color="#000072" stop-opacity="0"/>
</linearGradient>
<linearGradient id="paint14_linear_82_103" x1="33.5067" y1="307.085" x2="366.612" y2="312.61" gradientUnits="userSpaceOnUse">
<stop stop-color="#A40B0D"/>
<stop offset="1" stop-color="#000072" stop-opacity="0"/>
</linearGradient>
<linearGradient id="paint15_linear_82_103" x1="372.687" y1="162.92" x2="-40.116" y2="162.92" gradientUnits="userSpaceOnUse">
<stop stop-color="#555454"/>
<stop offset="0.3" stop-color="#9A9A9A"/>
<stop offset="0.5" stop-color="#E0E0E0"/>
<stop offset="0.697174" stop-color="#9A9A9A"/>
<stop offset="1" stop-color="#555454"/>
</linearGradient>
</defs>
</svg>
