<svg xmlns="http://www.w3.org/2000/svg" xmlns:xlink="http://www.w3.org/1999/xlink" width="1920" zoomAndPan="magnify" viewBox="0 0 1440 809.999993" height="1080" preserveAspectRatio="xMidYMid meet" version="1.0"><defs><g/><clipPath id="74ce341596"><rect x="0" width="1153" y="0" height="566"/></clipPath></defs><g transform="matrix(1, 0, 0, 1, 144, 41)"><g clip-path="url(#74ce341596)"><g fill="#e0e0e4" fill-opacity="1"><g transform="translate(1.296706, 410.99674)"><g><path d="M 38.5 5.140625 C 29.945312 5.140625 23.226562 4.15625 18.34375 2.1875 C 13.46875 0.21875 10.085938 -3.585938 8.203125 -9.234375 C 6.328125 -14.878906 5.390625 -23.179688 5.390625 -34.140625 C 5.390625 -46.117188 6.328125 -55.054688 8.203125 -60.953125 C 10.085938 -66.859375 13.46875 -70.835938 18.34375 -72.890625 C 23.226562 -74.941406 29.945312 -75.96875 38.5 -75.96875 C 47.226562 -75.96875 54.03125 -74.941406 58.90625 -72.890625 C 63.78125 -70.835938 67.15625 -66.859375 69.03125 -60.953125 C 70.914062 -55.054688 71.859375 -46.117188 71.859375 -34.140625 C 71.859375 -23.179688 70.914062 -14.878906 69.03125 -9.234375 C 67.15625 -3.585938 63.78125 0.21875 58.90625 2.1875 C 54.03125 4.15625 47.226562 5.140625 38.5 5.140625 Z M 38.5 5.140625 "/></g></g><g transform="translate(78.297928, 410.99674)"><g><path d="M 6.671875 0 L 6.671875 -349.0625 L 82.640625 -349.0625 C 108.648438 -349.0625 128.285156 -343.113281 141.546875 -331.21875 C 154.804688 -319.332031 161.4375 -301.753906 161.4375 -278.484375 L 161.4375 -70.84375 C 161.4375 -47.570312 154.847656 -29.945312 141.671875 -17.96875 C 128.503906 -5.988281 108.914062 0 82.90625 0 Z M 75.203125 -56.203125 L 81.625 -56.203125 C 84.875 -56.203125 87.050781 -57.1875 88.15625 -59.15625 C 89.269531 -61.125 89.828125 -64.929688 89.828125 -70.578125 L 89.828125 -277.96875 C 89.828125 -283.789062 89.269531 -287.726562 88.15625 -289.78125 C 87.050781 -291.832031 84.875 -292.859375 81.625 -292.859375 L 75.203125 -292.859375 Z M 75.203125 -56.203125 "/></g></g><g transform="translate(245.390579, 410.99674)"><g><path d="M 6.671875 0 L 6.671875 -349.0625 L 122.6875 -349.0625 L 122.6875 -300.8125 L 78.28125 -300.8125 L 78.28125 -191.46875 L 113.453125 -191.46875 L 113.453125 -155.03125 L 78.28125 -155.03125 L 78.28125 -46.96875 L 123.453125 -46.96875 L 123.453125 0 Z M 6.671875 0 "/></g></g><g transform="translate(371.159241, 410.99674)"><g><path d="M 42.609375 0 L 1.28125 -349.0625 L 72.125 -349.0625 L 80.078125 -97.28125 L 82.640625 -97.28125 L 90.609375 -349.0625 L 161.4375 -349.0625 L 120.125 0 Z M 42.609375 0 "/></g></g><g transform="translate(533.888489, 410.99674)"><g><path d="M 85.46875 5.140625 C 59.113281 5.140625 39.175781 -1.144531 25.65625 -13.71875 C 12.144531 -26.300781 5.390625 -44.828125 5.390625 -69.296875 L 5.390625 -280.03125 C 5.390625 -304.5 12.144531 -322.929688 25.65625 -335.328125 C 39.175781 -347.734375 59.113281 -353.9375 85.46875 -353.9375 C 137.65625 -353.9375 164.4375 -330.066406 165.8125 -282.328125 L 165.8125 -182.484375 L 92.65625 -182.484375 L 92.65625 -288.5 C 92.65625 -293.457031 90.257812 -295.9375 85.46875 -295.9375 C 80.507812 -295.9375 78.03125 -293.457031 78.03125 -288.5 L 78.03125 -60.828125 C 78.03125 -55.867188 80.507812 -53.390625 85.46875 -53.390625 C 90.257812 -53.390625 92.65625 -55.867188 92.65625 -60.828125 L 92.65625 -166.578125 L 165.8125 -166.578125 L 165.8125 -66.734375 C 164.269531 -18.816406 137.488281 5.140625 85.46875 5.140625 Z M 85.46875 5.140625 "/></g></g><g transform="translate(705.087871, 410.99674)"><g><path d="M 6.671875 0 L 6.671875 -349.0625 L 77.515625 -349.0625 L 77.515625 -50.8125 L 112.671875 -50.8125 L 112.671875 0 Z M 6.671875 0 "/></g></g><g transform="translate(821.873059, 410.99674)"><g><path d="M 82.90625 5.90625 C 57.582031 5.90625 38.457031 1.203125 25.53125 -8.203125 C 12.613281 -17.617188 6.15625 -31.566406 6.15625 -50.046875 L 6.15625 -349.0625 L 75.96875 -349.0625 L 75.96875 -58 C 75.96875 -50.644531 78.363281 -46.96875 83.15625 -46.96875 C 87.945312 -46.96875 90.34375 -50.644531 90.34375 -58 L 90.34375 -349.0625 L 159.640625 -349.0625 L 159.640625 -50.046875 C 159.640625 -31.566406 153.179688 -17.617188 140.265625 -8.203125 C 127.347656 1.203125 108.226562 5.90625 82.90625 5.90625 Z M 82.90625 5.90625 "/></g></g><g transform="translate(987.682359, 410.99674)"><g><path d="M 6.671875 0 L 6.671875 -349.0625 L 81.625 -349.0625 C 108.144531 -349.0625 127.09375 -345.550781 138.46875 -338.53125 C 149.851562 -331.519531 155.546875 -319.972656 155.546875 -303.890625 L 155.546875 -209.953125 C 155.546875 -201.566406 154.085938 -194.207031 151.171875 -187.875 C 148.265625 -181.550781 143.304688 -176.929688 136.296875 -174.015625 C 143.304688 -171.285156 148.519531 -166.796875 151.9375 -160.546875 C 155.363281 -154.296875 157.078125 -147.066406 157.078125 -138.859375 L 157.078125 -45.171875 C 157.078125 -29.085938 151.429688 -17.535156 140.140625 -10.515625 C 128.847656 -3.503906 109.941406 0 83.421875 0 Z M 74.171875 -192.25 L 78.28125 -192.25 C 81.875 -192.25 84.523438 -193.144531 86.234375 -194.9375 C 87.953125 -196.738281 88.8125 -199.773438 88.8125 -204.046875 L 88.8125 -296.96875 C 88.8125 -300.5625 88.210938 -303.125 87.015625 -304.65625 C 85.816406 -306.195312 83.675781 -306.96875 80.59375 -306.96875 L 74.171875 -306.96875 Z M 74.171875 -42.34375 L 80.59375 -42.34375 C 83.675781 -42.34375 85.816406 -43.070312 87.015625 -44.53125 C 88.210938 -45.988281 88.8125 -48.515625 88.8125 -52.109375 L 88.8125 -144.765625 C 88.8125 -149.035156 87.953125 -152.066406 86.234375 -153.859375 C 84.523438 -155.660156 81.875 -156.5625 78.28125 -156.5625 L 74.171875 -156.5625 Z M 74.171875 -42.34375 "/></g></g></g></g></g></svg>