<?xml version="1.0" encoding="utf-8"?>
<svg viewBox="0 0 499.629 105.285" xmlns="http://www.w3.org/2000/svg">
  <path fill-rule="evenodd" clip-rule="evenodd" d="M 1.956 0.672 C 1.862 0.784 1.713 0.877 1.625 0.877 C 1.443 0.877 0.748 1.604 0.491 2.067 C 0.271 2.458 0.238 27.802 0.457 27.937 C 0.547 27.992 0.593 35.865 0.593 51.114 C 0.593 66.36 0.547 74.233 0.457 74.289 C 0.242 74.421 0.274 84.367 0.491 84.753 C 0.748 85.216 1.443 85.944 1.625 85.944 C 1.713 85.944 1.862 86.037 1.956 86.148 C 2.105 86.328 5.007 86.356 26.136 86.387 L 50.148 86.422 L 50.19 87.089 C 50.213 87.455 50.167 87.82 50.088 87.9 C 50.008 87.979 49.943 88.426 49.943 88.894 C 49.943 89.363 49.882 89.784 49.807 89.831 C 49.729 89.876 49.672 90.532 49.672 91.33 C 49.672 92.127 49.611 92.781 49.534 92.83 C 49.458 92.875 49.397 93.487 49.397 94.193 C 49.397 94.898 49.337 95.509 49.262 95.556 C 49.186 95.601 49.125 96.032 49.125 96.51 C 49.125 96.989 49.064 97.418 48.99 97.464 C 48.914 97.511 48.853 97.746 48.853 97.988 C 48.853 98.346 48.693 98.582 47.997 99.274 C 47.526 99.741 47.077 100.123 47 100.123 C 46.923 100.123 46.682 100.306 46.467 100.533 C 46.251 100.758 46.003 100.942 45.916 100.942 C 45.83 100.942 45.647 101.063 45.512 101.213 C 45.376 101.364 45.193 101.486 45.107 101.486 C 45.02 101.486 44.774 101.67 44.559 101.895 C 44.341 102.12 44.095 102.304 44.008 102.304 C 43.787 102.304 43.399 102.76 43.399 103.02 C 43.399 103.139 43.561 103.364 43.758 103.521 L 44.118 103.803 L 62.485 103.803 L 80.853 103.803 L 81.212 103.521 C 81.408 103.364 81.572 103.13 81.572 102.996 C 81.572 102.743 81.169 102.304 80.937 102.304 C 80.863 102.304 80.628 102.12 80.413 101.895 C 80.195 101.67 79.949 101.486 79.862 101.486 C 79.776 101.486 79.593 101.364 79.458 101.213 C 79.322 101.063 79.139 100.942 79.053 100.942 C 78.966 100.942 78.72 100.758 78.503 100.533 C 78.287 100.306 78.044 100.123 77.962 100.123 C 77.881 100.123 77.432 99.737 76.967 99.267 C 76.285 98.58 76.119 98.326 76.119 97.981 C 76.119 97.743 76.057 97.511 75.982 97.464 C 75.906 97.418 75.845 96.989 75.845 96.51 C 75.845 96.032 75.784 95.601 75.71 95.556 C 75.632 95.509 75.573 94.898 75.573 94.193 C 75.573 93.487 75.511 92.875 75.437 92.83 C 75.358 92.781 75.3 92.127 75.3 91.33 C 75.3 90.532 75.24 89.876 75.164 89.831 C 75.088 89.784 75.028 89.363 75.028 88.894 C 75.028 88.426 74.962 87.979 74.883 87.9 C 74.803 87.82 74.756 87.455 74.78 87.089 L 74.824 86.422 L 98.834 86.387 C 119.962 86.356 122.864 86.328 123.015 86.148 C 123.108 86.037 123.257 85.944 123.345 85.944 C 123.527 85.944 124.221 85.216 124.48 84.753 C 124.696 84.367 124.727 74.421 124.514 74.289 C 124.424 74.233 124.377 66.338 124.377 51.045 C 124.377 35.752 124.424 27.856 124.514 27.801 C 124.602 27.746 124.651 23.345 124.651 15.041 C 124.651 3.403 124.632 2.335 124.419 1.996 C 124.082 1.451 123.531 0.877 123.347 0.877 C 123.257 0.877 123.108 0.784 123.015 0.672 C 122.863 0.492 115.972 0.468 62.485 0.468 C 8.999 0.468 2.106 0.492 1.956 0.672 Z M 119.265 37.684 L 119.265 69.517 L 62.452 69.552 L 5.637 69.586 L 5.637 37.684 L 5.637 5.783 L 62.452 5.817 L 119.265 5.853 L 119.265 37.684 Z M 69.984 13.824 C 68.956 14.038 66.352 14.838 65.518 15.195 C 65.35 15.267 65.073 15.382 64.905 15.449 C 63.664 15.945 62.398 16.527 60.508 17.472 C 58.697 18.376 57.595 18.967 55.654 20.065 C 53.256 21.426 48.977 24.287 47.898 25.255 L 47.149 25.924 L 47.053 27.203 C 46.792 30.714 46.774 31.552 46.93 33.437 C 47.02 34.536 47.148 35.743 47.212 36.118 C 47.28 36.492 47.404 37.229 47.488 37.753 C 47.726 39.227 48.138 40.847 48.804 42.921 C 49.139 43.963 49.362 44.856 49.303 44.906 C 49.243 44.957 48.916 45.079 48.58 45.178 C 47.481 45.497 46.336 45.878 46.028 46.03 C 45.723 46.18 45.308 45.996 45.308 45.709 C 45.308 45.438 43.78 43.264 42.82 42.171 C 41.954 41.184 39.91 39.289 38.634 38.288 C 38.45 38.143 38.097 37.831 37.846 37.594 C 37.432 37.195 37.408 37.133 37.561 36.776 C 37.763 36.294 38.309 35.54 38.762 35.108 C 39.34 34.559 41.391 33.261 43.263 32.263 C 43.751 32.002 44.41 31.64 44.729 31.46 L 45.308 31.129 L 45.308 30.113 C 45.308 29.369 45.261 29.097 45.13 29.097 C 44.967 29.097 42.948 30.094 41.695 30.797 C 40.315 31.569 40.007 31.755 38.911 32.481 C 37.565 33.369 36.468 34.415 36.127 35.138 C 35.996 35.414 35.812 35.64 35.719 35.64 C 35.481 35.64 34.396 34.487 33.795 33.601 C 32.597 31.828 32.18 30.414 32.181 28.143 C 32.185 24.872 32.939 23.546 36.361 20.799 C 37.027 20.263 37.686 19.827 37.827 19.827 C 38.054 19.827 38.083 19.94 38.083 20.893 C 38.083 21.486 37.991 22.226 37.876 22.563 C 37.576 23.444 36.762 24.443 35.793 25.117 L 34.947 25.707 L 34.947 26.637 C 34.947 27.746 35.069 27.84 35.924 27.407 C 38.611 26.048 40.13 23.714 40.127 20.945 C 40.124 19.429 39.497 17.605 38.535 16.316 C 38.144 15.792 37.87 15.748 37.758 16.197 C 37.603 16.812 36.488 18.126 35.425 18.941 C 31.426 22.008 30.376 23.759 30.213 27.628 C 30.052 31.413 31.228 34.227 34.183 37.14 L 35.217 38.163 L 35.218 39.334 C 35.218 39.979 35.275 40.684 35.341 40.903 C 36.082 43.298 36.082 43.302 35.899 44.018 C 35.803 44.397 35.639 44.834 35.538 44.992 C 35.331 45.31 34.42 45.796 33.788 45.927 C 32.008 46.297 31.892 46.366 31.685 47.188 C 31.274 48.825 29.795 52.988 28.891 55.061 C 28.79 55.287 28.615 55.689 28.501 55.952 C 28.389 56.215 28.136 56.785 27.94 57.218 C 27.745 57.651 27.586 58.033 27.586 58.066 C 27.586 58.1 27.393 58.542 27.159 59.05 C 25.985 61.604 25.813 61.999 25.813 62.172 C 25.813 62.325 26.284 62.361 28.326 62.361 L 30.838 62.361 L 31.121 61.963 C 31.274 61.746 31.404 61.539 31.404 61.504 C 31.404 61.103 36.824 53.005 37.661 52.156 C 38.118 51.691 38.788 51.272 40.147 50.599 C 41.17 50.095 42.046 49.683 42.091 49.683 C 42.183 49.683 43.326 49.189 43.715 48.981 C 43.891 48.888 44.03 48.901 44.175 49.02 C 44.35 49.165 44.368 49.403 44.29 50.403 C 44.185 51.747 43.848 52.921 43.254 54.029 C 43.038 54.432 42.889 54.806 42.922 54.863 C 42.956 54.918 43.552 55.006 44.247 55.057 C 44.943 55.11 45.697 55.207 45.922 55.276 C 48.178 55.965 49.167 56.426 50.761 57.534 C 51.92 58.34 53.945 60.376 54.85 61.644 L 55.458 62.496 L 58.697 62.496 C 61.422 62.496 61.941 62.465 61.941 62.301 C 61.941 62.139 60.988 60.771 59.514 58.817 C 58.388 57.318 56.788 54.842 55.155 52.067 C 53.939 49.999 52.352 46.724 52.447 46.477 C 52.574 46.144 55.46 46.196 56.76 46.554 C 59.435 47.297 61.463 49.056 62.722 51.727 C 63.173 52.685 63.645 54.177 63.792 55.096 C 63.945 56.078 64.074 56.158 64.943 55.812 C 65.354 55.649 65.964 55.429 66.303 55.325 C 67.062 55.093 69.205 55.081 69.848 55.307 C 72.064 56.089 74.132 58.181 75.878 61.405 L 76.358 62.292 L 79.853 62.328 C 82.684 62.357 83.363 62.329 83.419 62.181 C 83.46 62.079 83.231 61.573 82.916 61.055 C 81.97 59.5 80.977 57.26 80.594 55.817 C 80.015 53.63 79.897 51.558 80.285 50.374 C 80.798 48.805 82.192 47.966 83.439 48.473 C 84.543 48.925 84.807 49.096 85.575 49.87 C 86.465 50.767 87.171 52.011 87.442 53.17 C 87.701 54.265 87.678 54.25 88.878 54.25 L 89.955 54.25 L 90.173 52.409 C 90.514 49.505 90.745 48.846 91.795 47.755 C 92.483 47.041 93.405 46.683 94.557 46.683 C 95.114 46.683 95.377 46.584 96.156 46.079 C 97.057 45.497 97.093 45.45 97.227 44.75 C 97.442 43.632 97.59 40.286 97.59 36.527 C 97.59 31.953 97.372 28.678 96.908 26.302 L 96.749 25.484 L 96.146 25.45 C 94.193 25.34 91.763 24.819 90.452 24.225 C 89.779 23.92 89.733 23.87 89.818 23.531 C 89.87 23.33 89.966 22.828 90.032 22.417 C 90.097 22.004 90.215 21.437 90.291 21.156 C 90.368 20.873 90.486 20.444 90.552 20.201 C 91.015 18.496 92.116 16.048 93.047 14.661 C 93.571 13.878 93.495 13.675 92.739 13.844 C 91.288 14.172 89.252 15.022 88.159 15.759 C 87.846 15.972 87.524 16.146 87.445 16.146 C 87.185 16.146 84.357 19.061 83.982 19.713 C 83.54 20.485 83.52 21.012 83.909 21.775 C 84.266 22.476 85.625 23.833 86.663 24.523 C 87.086 24.803 87.474 25.099 87.524 25.179 C 87.574 25.259 87.602 25.637 87.59 26.018 C 87.555 27.015 87.909 29.418 88.252 30.511 C 88.459 31.173 88.502 31.489 88.4 31.593 C 88.315 31.676 87.657 31.74 86.856 31.744 C 85.662 31.747 85.361 31.7 84.814 31.432 C 83.99 31.027 83.141 30.1 82.695 29.12 C 82.39 28.452 82.339 28.15 82.331 26.915 C 82.32 25.454 82.473 24.701 82.962 23.811 C 83.096 23.563 83.207 23.254 83.207 23.12 C 83.207 22.627 82.372 21.613 80.33 19.622 C 76.576 15.965 74.393 14.338 72.452 13.749 C 71.674 13.514 71.434 13.519 69.984 13.824 Z M 72.836 16.04 C 74.334 16.883 76.162 18.393 78.797 20.965 C 79.87 22.014 80.786 22.988 80.832 23.133 C 80.878 23.278 80.825 23.652 80.714 23.962 C 80.181 25.46 80.085 27.168 80.447 28.771 C 80.682 29.81 81.406 31.131 82.196 31.959 C 83.979 33.829 86.469 34.32 89.42 33.382 C 90.336 33.091 91.371 32.606 91.435 32.437 C 91.469 32.35 91.313 32.008 91.089 31.676 C 90.243 30.421 89.846 29.221 89.685 27.427 C 89.603 26.514 89.621 26.357 89.817 26.282 C 89.941 26.236 90.175 26.26 90.339 26.336 C 90.502 26.412 90.912 26.55 91.25 26.642 C 91.587 26.735 92.016 26.859 92.204 26.919 C 92.391 26.98 93.066 27.106 93.705 27.201 C 94.34 27.293 94.934 27.424 95.021 27.49 C 95.216 27.638 95.277 28.34 95.486 32.846 C 95.686 37.168 95.513 43.717 95.191 44.008 C 95.086 44.103 94.513 44.259 93.921 44.355 C 93.329 44.448 92.684 44.588 92.49 44.666 C 90.575 45.432 89.391 46.719 88.767 48.718 C 88.671 49.023 88.506 49.273 88.401 49.273 C 88.294 49.273 87.997 49.026 87.74 48.725 C 87.081 47.955 85.738 47.041 84.765 46.699 C 83.499 46.256 81.798 46.29 80.8 46.778 C 79.738 47.299 78.959 48.216 78.484 49.51 C 78.122 50.491 78.094 50.699 78.111 52.409 C 78.132 54.799 78.619 56.841 79.754 59.33 C 79.935 59.726 80.046 60.11 80.001 60.182 C 79.956 60.255 79.402 60.316 78.771 60.316 C 77.667 60.316 77.615 60.3 77.391 59.94 C 75.39 56.702 73.796 55.01 71.743 53.94 C 70.164 53.119 68.593 52.867 66.829 53.154 C 66.133 53.267 65.525 53.313 65.482 53.257 C 65.437 53.204 65.26 52.728 65.087 52.204 C 64.135 49.306 61.978 46.674 59.6 45.505 C 57.541 44.491 55.926 44.172 53.236 44.247 L 51.4 44.297 L 50.892 42.832 C 50.614 42.029 50.351 41.232 50.31 41.06 C 50.268 40.892 50.168 40.508 50.086 40.207 C 49.797 39.131 49.448 37.443 49.26 36.186 C 48.999 34.459 48.845 31.457 48.922 29.574 C 49.039 26.716 48.95 26.943 50.321 25.931 C 51.694 24.92 54.392 23.098 54.518 23.098 C 54.565 23.098 54.766 22.982 54.966 22.84 C 55.164 22.7 55.557 22.455 55.84 22.295 C 56.12 22.137 56.58 21.874 56.862 21.713 C 58.822 20.585 62.682 18.611 64.123 17.999 C 64.459 17.856 64.981 17.632 65.281 17.501 C 67.197 16.655 69.724 15.837 70.87 15.688 C 71.518 15.605 72.31 15.747 72.836 16.04 Z M 89.671 17.081 C 89.711 17.147 89.554 17.652 89.319 18.206 C 88.686 19.705 88.525 20.194 88.248 21.462 C 87.933 22.913 87.777 22.958 86.643 21.931 C 85.659 21.041 85.599 20.772 86.195 19.918 C 86.67 19.235 87.948 17.991 88.788 17.395 C 89.432 16.936 89.554 16.893 89.671 17.081 Z M 39.73 42.011 C 41.668 43.895 42.491 44.856 43.192 46.054 C 43.663 46.856 43.639 46.885 41.968 47.565 C 40.508 48.158 37.846 49.453 37.004 49.979 C 36.64 50.21 36.032 50.85 35.452 51.62 C 34.431 52.977 30.999 58.06 30.986 58.235 C 30.982 58.291 30.689 58.769 30.338 59.293 C 29.832 60.048 29.628 60.248 29.358 60.248 C 28.874 60.248 28.925 59.999 29.825 57.931 C 30.248 56.955 30.647 56.035 30.713 55.885 C 30.776 55.734 30.951 55.335 31.1 54.999 C 31.803 53.4 33.448 48.748 33.448 48.355 C 33.448 48.168 34.289 47.773 34.692 47.773 C 35.133 47.773 36.146 47.222 36.705 46.679 C 37.198 46.201 37.353 45.944 37.79 44.87 C 38.035 44.271 37.98 42.606 37.685 41.695 C 37 39.583 37.278 39.625 39.73 42.011 Z M 50.244 47.057 C 50.358 47.188 50.566 47.571 50.708 47.905 C 51.903 50.734 55.958 57.593 57.664 59.67 C 58.094 60.195 57.955 60.452 57.248 60.452 C 56.566 60.452 56.455 60.373 55.514 59.224 C 53.161 56.356 50.02 54.275 46.637 53.346 C 46.034 53.178 45.922 53.077 45.979 52.763 C 46.349 50.781 46.414 50.165 46.348 49.251 C 46.293 48.482 46.319 48.168 46.45 48.059 C 46.592 47.94 49.641 46.872 49.956 46.83 C 50.001 46.823 50.13 46.925 50.244 47.057 Z M 161.372 16.736 C 161.335 16.831 161.322 18.718 161.341 20.928 L 161.377 24.948 L 163.423 25.017 L 165.468 25.084 L 165.468 50.919 L 165.468 76.753 L 163.423 76.82 L 161.377 76.889 L 161.377 80.979 L 161.377 85.068 L 176.645 85.104 L 191.912 85.137 L 194.742 82.31 L 197.573 79.481 L 197.573 50.853 L 197.573 22.223 L 194.745 19.393 L 191.918 16.565 L 176.677 16.565 C 164.537 16.565 161.424 16.599 161.372 16.736 Z M 211.949 16.735 C 211.912 16.831 211.9 18.718 211.919 20.928 L 211.954 24.948 L 214 25.017 L 216.045 25.084 L 216.045 50.919 L 216.045 76.753 L 214 76.82 L 211.954 76.889 L 211.954 80.979 L 211.954 85.068 L 230.02 85.068 L 248.082 85.068 L 248.082 78.048 L 248.082 71.027 L 243.925 71.027 L 239.767 71.027 L 239.698 73.89 L 239.629 76.753 L 232.132 76.753 L 224.634 76.753 L 224.634 65.507 L 224.634 54.259 L 228.86 54.191 L 233.087 54.123 L 233.087 50.033 L 233.087 45.942 L 228.86 45.875 L 224.634 45.807 L 224.634 35.446 L 224.634 25.084 L 232.132 25.084 L 239.629 25.084 L 239.698 27.88 L 239.767 30.674 L 243.925 30.674 L 248.082 30.674 L 248.082 23.653 L 248.082 16.632 L 230.049 16.597 C 215.606 16.571 212.002 16.597 211.949 16.735 Z M 259.527 16.735 C 259.49 16.831 259.476 18.718 259.497 20.928 L 259.534 24.948 L 262.053 25.017 C 264.15 25.073 264.58 25.118 264.611 25.29 C 264.65 25.509 269.711 65.893 270.027 68.505 C 270.252 70.383 271.065 76.831 271.528 80.434 C 271.712 81.858 271.902 83.422 271.951 83.91 C 272.002 84.396 272.103 84.873 272.179 84.967 C 272.283 85.098 273.791 85.137 278.893 85.137 C 283.996 85.137 285.499 85.098 285.598 84.967 C 285.667 84.873 285.982 82.71 286.296 80.161 C 286.611 77.612 287.114 73.593 287.415 71.232 C 288.037 66.37 288.894 59.597 290.277 48.669 C 290.798 44.546 291.497 39.024 291.83 36.401 C 292.163 33.776 292.598 30.34 292.796 28.766 C 292.994 27.191 293.201 25.719 293.257 25.494 L 293.359 25.084 L 295.736 25.017 L 298.114 24.948 L 298.114 20.79 L 298.114 16.632 L 289.798 16.632 L 281.483 16.632 L 281.483 20.79 L 281.483 24.948 L 283.049 25.017 L 284.618 25.084 L 284.602 25.561 C 284.569 26.551 279.033 70.414 278.942 70.414 C 278.808 70.414 278.724 69.95 278.485 67.892 C 278.371 66.917 278.125 64.923 277.935 63.461 C 277.747 61.999 277.474 59.821 277.329 58.621 C 277.186 57.422 276.207 49.6 275.16 41.239 C 274.109 32.878 273.232 25.795 273.208 25.494 L 273.167 24.948 L 274.802 24.881 L 276.438 24.813 L 276.438 20.723 L 276.438 16.632 L 268.015 16.597 C 261.311 16.569 259.58 16.597 259.527 16.735 Z M 313.415 19.393 L 310.588 22.223 L 310.588 50.853 L 310.588 79.481 L 313.417 82.308 L 316.247 85.137 L 326.637 85.137 L 337.025 85.137 L 339.826 82.35 L 342.628 79.565 L 342.592 75.296 L 342.556 71.027 L 338.468 71.027 L 334.377 71.027 L 334.308 73.89 L 334.241 76.753 L 326.607 76.753 L 318.972 76.753 L 318.972 50.919 L 318.972 25.084 L 326.607 25.084 L 334.241 25.084 L 334.308 27.88 L 334.377 30.674 L 338.468 30.674 L 342.556 30.674 L 342.556 23.653 L 342.556 16.632 L 338.468 16.632 L 334.377 16.632 L 334.338 18.235 C 334.314 19.246 334.246 19.836 334.155 19.836 C 334.076 19.836 333.261 19.1 332.344 18.2 L 330.675 16.565 L 323.459 16.565 L 316.243 16.565 L 313.415 19.393 Z M 360.819 16.735 C 360.781 16.831 360.768 18.718 360.788 20.928 L 360.824 24.948 L 362.869 25.017 L 364.915 25.084 L 364.915 50.919 L 364.915 76.753 L 362.869 76.82 L 360.824 76.889 L 360.824 80.979 L 360.824 85.068 L 378.956 85.068 L 397.088 85.068 L 397.088 78.048 L 397.088 71.027 L 392.93 71.027 L 388.772 71.027 L 388.703 73.89 L 388.636 76.753 L 381.069 76.753 L 373.503 76.753 L 373.503 50.919 L 373.503 25.084 L 375.48 25.017 L 377.457 24.948 L 377.457 20.79 L 377.457 16.632 L 369.171 16.597 C 362.575 16.569 360.871 16.597 360.819 16.735 Z M 407.306 16.735 C 407.269 16.831 407.255 18.718 407.275 20.928 L 407.313 24.948 L 409.357 25.017 L 411.402 25.084 L 411.437 52.281 L 411.47 79.476 L 414.297 82.307 L 417.126 85.137 L 427.625 85.137 L 438.123 85.137 L 440.951 82.307 L 443.778 79.476 L 443.812 52.281 L 443.849 25.084 L 445.893 25.017 L 447.937 24.948 L 447.937 20.79 L 447.937 16.632 L 439.553 16.632 L 431.17 16.632 L 431.17 20.79 L 431.17 24.948 L 433.214 25.017 L 435.259 25.084 L 435.259 50.919 L 435.259 76.753 L 427.558 76.753 L 419.854 76.753 L 419.854 50.919 L 419.854 25.084 L 421.899 25.017 L 423.944 24.948 L 423.944 20.79 L 423.944 16.632 L 415.658 16.597 C 409.063 16.569 407.359 16.597 407.306 16.735 Z M 461.018 16.736 C 460.982 16.831 460.968 18.718 460.989 20.928 L 461.025 24.948 L 463.07 25.017 L 465.116 25.084 L 465.116 50.919 L 465.116 76.753 L 463.07 76.82 L 461.025 76.889 L 461.025 80.979 L 461.025 85.068 L 476.379 85.104 L 491.733 85.137 L 494.475 82.291 L 497.22 79.444 L 497.22 66.827 L 497.22 54.212 L 495.175 52.263 C 494.05 51.193 493.129 50.216 493.129 50.092 C 493.129 49.969 494.05 48.988 495.175 47.914 L 497.22 45.962 L 497.22 34.071 L 497.22 22.179 L 494.391 19.372 L 491.563 16.565 L 476.322 16.565 C 464.185 16.565 461.07 16.599 461.018 16.736 Z M 189.052 50.919 L 189.052 76.753 L 181.555 76.753 L 174.056 76.753 L 174.021 51.055 C 174.001 36.921 174.015 25.28 174.052 25.186 C 174.102 25.049 175.683 25.021 181.584 25.049 L 189.052 25.084 L 189.052 50.919 Z M 488.836 35.446 L 488.836 45.807 L 481.269 45.807 L 473.703 45.807 L 473.668 35.582 C 473.648 29.958 473.662 25.28 473.698 25.186 C 473.749 25.049 475.344 25.021 481.3 25.049 L 488.836 25.084 L 488.836 35.446 Z M 488.836 65.711 L 488.836 76.753 L 481.269 76.753 L 473.703 76.753 L 473.668 65.847 C 473.649 59.849 473.662 54.863 473.698 54.768 C 473.749 54.632 475.344 54.604 481.3 54.632 L 488.836 54.669 L 488.836 65.711 Z M 151.747 75.43 C 150.259 75.83 149.169 76.751 148.53 78.152 C 147.531 80.33 147.9 82.871 149.451 84.512 C 150.427 85.545 151.487 86.001 152.925 86.01 C 154.508 86.023 155.533 85.611 156.613 84.53 C 157.758 83.387 158.109 82.449 158.097 80.57 C 158.087 79.038 157.818 78.135 157.07 77.117 C 155.948 75.591 153.739 74.891 151.747 75.43 Z" fill="white" style=""/>
</svg>