<svg width="3500" height="3500" viewBox="0 0 3500 3500" fill="none" xmlns="http://www.w3.org/2000/svg">
<rect x="1311" y="1211" width="896" height="539" fill="white"/>
<path fill-rule="evenodd" clip-rule="evenodd" d="M1747.18 905.55C1736.72 907.785 1725.36 916.635 1720.4 926.425C1713.23 940.577 1713.02 963.233 1719.93 976.783C1723.06 982.912 1731.4 991.226 1737.22 994.014C1756.13 1003.08 1778.78 996.927 1789.66 979.772C1799.38 964.45 1799.38 937.687 1789.65 922.353C1783.08 912.003 1772.17 905.814 1759.24 905.101C1754.89 904.861 1749.46 905.063 1747.18 905.55ZM1822.45 909.371C1822.13 909.897 1821.19 916.571 1820.37 924.202C1819.55 931.832 1817.71 948.65 1816.29 961.575C1814.86 974.5 1813.61 988 1813.51 991.575L1813.33 998.075L1818.59 998.378C1822.25 998.589 1823.97 998.285 1824.24 997.378C1824.46 996.661 1825.44 988.078 1826.41 978.304C1827.44 967.905 1828.66 960.125 1829.36 959.548C1830.14 958.897 1835.47 959.119 1845.12 960.203C1853.13 961.105 1860.39 961.571 1861.26 961.24C1863.5 960.379 1863.36 953.929 1861.08 952.723C1860.11 952.216 1852.87 951.219 1844.97 950.507C1834.8 949.589 1830.47 948.82 1830.11 947.862C1829.51 946.314 1832.43 920.637 1833.3 919.768C1833.61 919.452 1841.55 920.006 1850.93 920.999C1862.11 922.182 1868.34 922.465 1868.98 921.821C1869.52 921.281 1869.82 919.092 1869.64 916.957L1869.33 913.075L1854.7 911.454C1831.2 908.848 1823.1 908.325 1822.45 909.371ZM1656.33 911.527C1654.79 912.16 1652.6 917.495 1646.91 934.464C1642.84 946.625 1639.19 956.575 1638.8 956.575C1638.41 956.575 1636.85 954.663 1635.32 952.325C1633.8 949.987 1627.78 941.391 1621.94 933.222L1611.33 918.37L1605.84 919.009C1602.82 919.36 1599.94 920.057 1599.44 920.557C1598.9 921.102 1601.92 925.791 1607 932.27C1611.65 938.213 1619.65 948.57 1624.77 955.286L1634.09 967.497L1636.76 984.811C1638.23 994.333 1639.8 1002.73 1640.26 1003.47C1641.09 1004.82 1649.16 1004.58 1650.57 1003.16C1650.93 1002.81 1650.12 995.215 1648.78 986.294C1647.44 977.374 1646.39 968.5 1646.44 966.575C1646.49 964.65 1651.1 951.617 1656.68 937.613C1662.26 923.609 1666.83 911.797 1666.83 911.363C1666.83 910.337 1658.91 910.46 1656.33 911.527ZM1767.67 917.183C1773.78 920.229 1778.73 926.188 1781.99 934.422C1783.86 939.116 1784.24 942.026 1784.24 951.575C1784.25 961.942 1783.97 963.741 1781.43 969.835C1776.07 982.667 1766 989.413 1753.86 988.312C1746.81 987.672 1741.27 984.919 1736.56 979.707C1731.95 974.599 1730.47 971.64 1728.45 963.511C1723.46 943.37 1731.2 922.532 1746.07 916.069C1751.62 913.655 1761.62 914.171 1767.67 917.183ZM1569.33 927.208C1564.38 928.501 1551.1 931.947 1539.83 934.866L1519.33 940.175L1519.61 943.625C1520.13 949.795 1521.09 949.989 1534.27 946.589C1547.41 943.202 1548.18 943.345 1549.31 949.352C1549.69 951.389 1551.94 960.486 1554.31 969.566C1556.67 978.646 1560.51 993.5 1562.83 1002.58C1565.16 1011.65 1567.43 1019.48 1567.89 1019.97C1568.73 1020.89 1577.51 1018.9 1578.3 1017.62C1578.53 1017.24 1576.54 1008.41 1573.87 998.003C1571.21 987.593 1566.91 970.843 1564.33 960.781C1561.76 950.72 1559.87 941.911 1560.14 941.206C1560.41 940.502 1563.71 939.131 1567.48 938.159C1584.59 933.748 1584.83 933.653 1584.81 931.297C1584.77 923.776 1583.62 923.474 1569.33 927.208ZM1933.02 925.835C1932.45 926.528 1925.63 945.285 1917.87 967.518C1902.43 1011.76 1902.73 1010.04 1910.14 1011.24C1914.66 1011.97 1913.36 1014.84 1926.88 974.325C1932.53 957.413 1937.52 943.575 1937.99 943.575C1938.45 943.575 1938.83 947.963 1938.84 953.325C1938.86 962.34 1939.38 971.737 1941.79 1005.96C1942.28 1013.04 1943.06 1019.2 1943.51 1019.63C1943.96 1020.06 1945.93 1020.71 1947.88 1021.07L1951.44 1021.73L1969.51 995.9C1979.44 981.696 1989.27 967.487 1991.34 964.325C1993.41 961.163 1995.49 958.575 1995.97 958.575C1997.1 958.575 1997.12 958.416 1994.85 967.861C1993.76 972.379 1991.77 981.25 1990.42 987.575C1989.06 993.9 1986.77 1004.48 1985.31 1011.08C1983.85 1017.68 1982.58 1024.82 1982.49 1026.94C1982.33 1030.7 1982.45 1030.85 1986.81 1032.16C1989.28 1032.9 1991.57 1033.18 1991.9 1032.79C1992.59 1031.99 1994.01 1025.44 2003.3 980.47C2006.89 963.087 2009.83 948.102 2009.83 947.169C2009.83 945.326 2005.54 943.174 1999.69 942.077L1996.06 941.396L1982.6 960.235C1969.08 979.173 1961.33 990.448 1956.44 998.325C1954.99 1000.66 1953.42 1002.58 1952.97 1002.58C1952.51 1002.58 1951.8 995.038 1951.41 985.825C1951.01 976.612 1949.92 959.85 1949 948.575L1947.33 928.075L1942.33 926.405C1936.13 924.337 1934.36 924.228 1933.02 925.835ZM1496.08 948.141C1494.29 948.933 1492.83 950.121 1492.83 950.781C1492.83 951.441 1498.94 970.565 1506.41 993.278C1517.59 1027.27 1520.31 1034.58 1521.79 1034.58C1525.23 1034.58 1530.83 1031.6 1530.75 1029.81C1530.71 1028.86 1524.52 1009.85 1517 987.575C1502.07 943.348 1502.99 945.079 1496.08 948.141ZM1453.62 962.483C1433.55 968.982 1424.33 984.701 1431.87 999.575C1436.57 1008.85 1442.81 1011.65 1460.83 1012.58C1475.61 1013.34 1478.76 1014.33 1483.21 1019.62C1485.26 1022.06 1485.83 1023.8 1485.83 1027.7C1485.83 1034.28 1483.72 1038.05 1478.04 1041.66C1472.25 1045.33 1467.28 1046.71 1458.85 1046.99L1452.33 1047.21L1452.68 1051.64C1452.87 1054.08 1453.27 1056.47 1453.57 1056.96C1454.27 1058.11 1466.06 1056.96 1471.94 1055.16C1488.7 1050.04 1498.72 1038.41 1497.55 1025.43C1496.84 1017.63 1492.61 1010.03 1486.98 1006.46C1481.56 1003.02 1475.01 1001.58 1464.83 1001.58C1453.01 1001.58 1447.49 1000.1 1443.86 995.965C1441.32 993.072 1440.83 991.664 1440.83 987.369C1440.83 982.61 1441.15 981.924 1445.19 978.052C1449.52 973.904 1456.96 971.051 1465.33 970.333C1468.18 970.088 1468.33 969.851 1468.33 965.575V961.075L1463.83 960.856C1461.35 960.735 1456.76 961.467 1453.62 962.483ZM2062.18 969.319C2048.07 984.503 2003.26 1036.1 2003.04 1037.41C2002.83 1038.62 2004 1039.57 2007.04 1040.69C2009.4 1041.56 2011.84 1042.09 2012.47 1041.87C2013.1 1041.66 2017.27 1037.24 2021.74 1032.05C2026.21 1026.86 2030.67 1022.2 2031.64 1021.68C2032.96 1020.97 2036.31 1021.98 2044.87 1025.65C2051.17 1028.36 2057.23 1030.86 2058.33 1031.21C2059.43 1031.56 2060.55 1032.2 2060.84 1032.63C2061.12 1033.06 2060.99 1039.83 2060.55 1047.66C2060.11 1055.49 2060.11 1062.2 2060.54 1062.55C2062.24 1063.97 2069.88 1066.85 2070.44 1066.3C2070.76 1065.97 2071.67 1056.34 2072.45 1044.89C2073.23 1033.44 2074.66 1012.69 2075.62 998.766C2076.58 984.846 2077.12 973.051 2076.81 972.556C2076.51 972.061 2073.67 970.51 2070.5 969.109L2064.74 966.563L2062.18 969.319ZM2065.79 983.325C2065.12 996.744 2062.82 1020.99 2062.15 1021.66C2061.22 1022.58 2041.8 1014.95 2039.68 1012.83C2038.88 1012.03 2041.61 1008.3 2049.74 999.085C2055.87 992.13 2061.44 985.57 2062.1 984.507C2063.27 982.636 2065.86 981.804 2065.79 983.325ZM1384.43 995.097C1375.73 997.486 1355.44 1008.8 1354.24 1011.93C1353.81 1013.06 1370.88 1047.22 1379.31 1062.08C1380.55 1064.28 1384.11 1071.08 1387.2 1077.2C1390.29 1083.32 1393.48 1088.88 1394.28 1089.54C1395.45 1090.51 1396.55 1090.3 1399.78 1088.48C1402.01 1087.23 1403.83 1085.66 1403.83 1084.99C1403.83 1084.32 1400.23 1076.82 1395.83 1068.32C1391.43 1059.82 1387.83 1052.4 1387.83 1051.82C1387.83 1050.09 1398.55 1044.58 1403.13 1043.95C1410.06 1043 1413.51 1045.19 1424.44 1057.46C1429.88 1063.57 1435.1 1068.57 1436.04 1068.57C1438.97 1068.58 1444.83 1065.29 1444.8 1063.64C1444.79 1062.78 1439.28 1056.36 1432.55 1049.37C1423.85 1040.32 1419.46 1036.48 1417.33 1036.05C1415.68 1035.71 1413.37 1035.05 1412.19 1034.58L1410.06 1033.72L1412.94 1028.01C1414.9 1024.13 1415.82 1020.81 1415.8 1017.68C1415.76 1008.03 1408.26 997.673 1399.41 995.045C1393.53 993.299 1390.95 993.308 1384.43 995.097ZM2125.45 997.825C2121.74 1003.68 2083.83 1071.82 2083.83 1072.62C2083.83 1073.12 2085.68 1074.48 2087.95 1075.64C2091.4 1077.4 2092.3 1077.53 2093.41 1076.41C2094.86 1074.97 2115.5 1038.36 2122.83 1024.26C2125.3 1019.5 2127.59 1015.59 2127.92 1015.59C2128.25 1015.58 2128.78 1024.46 2129.11 1035.33C2129.44 1046.19 2130.27 1065.32 2130.95 1077.84L2132.19 1100.61L2136.7 1103.13C2139.17 1104.51 2141.68 1105.46 2142.26 1105.23C2142.85 1105 2152.94 1087.65 2164.68 1066.68C2187.74 1025.52 2187.06 1027.3 2180.78 1024.05C2178.66 1022.96 2177.77 1022.92 2176.59 1023.87C2175.1 1025.07 2159.3 1052.88 2149.22 1072.05C2146.34 1077.54 2143.49 1082.19 2142.9 1082.38C2142.17 1082.63 2141.82 1078.75 2141.81 1070.41C2141.8 1063.63 2141.36 1050.43 2140.83 1041.08C2140.3 1031.73 2139.57 1018.79 2139.21 1012.34L2138.54 1000.6L2134.26 998.087C2128.97 994.991 2127.27 994.94 2125.45 997.825ZM1396.84 1006.08C1401.21 1008.34 1404.83 1015.22 1404.83 1021.26C1404.83 1028.32 1401.28 1032.86 1391.35 1038.52L1383.55 1042.96L1381.75 1040.73C1380.76 1039.51 1377.21 1033.13 1373.86 1026.57L1367.77 1014.63L1369.88 1012.52C1371.04 1011.36 1374.76 1009.1 1378.16 1007.5C1385.15 1004.19 1392.15 1003.66 1396.84 1006.08ZM1310.33 1037.1C1299.88 1043.94 1291.19 1050.16 1291.03 1050.93C1290.86 1051.69 1296.57 1061.27 1303.7 1072.2C1310.84 1083.13 1321.54 1099.61 1327.49 1108.83C1333.45 1118.04 1338.8 1125.58 1339.38 1125.58C1339.97 1125.58 1347.85 1120.72 1356.89 1114.79C1365.93 1108.86 1375.01 1102.98 1377.08 1101.71C1379.14 1100.45 1380.83 1098.96 1380.83 1098.4C1380.83 1096.41 1377.37 1091.58 1375.95 1091.58C1375.16 1091.58 1368.21 1095.69 1360.51 1100.71C1352.82 1105.73 1345.74 1110.05 1344.78 1110.3C1343.46 1110.64 1341.15 1107.88 1335.28 1098.91C1331.01 1092.4 1327.33 1086.36 1327.1 1085.48C1326.79 1084.34 1330.54 1081.38 1340.25 1075.11C1348.67 1069.66 1353.83 1065.7 1353.83 1064.67C1353.83 1062.32 1350.99 1058.58 1349.21 1058.58C1348.38 1058.58 1341.85 1062.4 1334.71 1067.08C1327.57 1071.75 1321.34 1075.58 1320.88 1075.58C1319.91 1075.58 1305.83 1054.26 1305.83 1052.79C1305.83 1052.25 1312.35 1047.6 1320.32 1042.44C1329.13 1036.76 1334.82 1032.44 1334.82 1031.46C1334.83 1029.75 1331.16 1024.54 1330 1024.62C1329.63 1024.64 1320.78 1030.26 1310.33 1037.1ZM2208.6 1044.86C2207.77 1045.53 2197.27 1060.7 2185.28 1078.58C2173.29 1096.45 2162.65 1112.15 2161.65 1113.46C2160.65 1114.77 2159.83 1116.44 2159.83 1117.17C2159.83 1118.55 2166.5 1123.58 2168.31 1123.57C2168.87 1123.56 2171.97 1119.63 2175.2 1114.82C2178.42 1110.01 2189.34 1093.84 2199.45 1078.89C2209.55 1063.93 2217.83 1051.03 2217.83 1050.21C2217.83 1048.92 2215.17 1046.53 2211.22 1044.27C2210.62 1043.92 2209.44 1044.19 2208.6 1044.86ZM2230.39 1061.29C2228.98 1062.81 2227.84 1064.73 2227.87 1065.57C2227.89 1066.4 2231.51 1069.78 2235.91 1073.08C2240.31 1076.38 2244.83 1080.04 2245.95 1081.23L2247.99 1083.37L2224.16 1113.99C2211.05 1130.83 2200.22 1145.16 2200.09 1145.84C2199.85 1147.17 2206.44 1152.6 2208.24 1152.54C2208.84 1152.53 2219.9 1138.83 2232.83 1122.11C2245.75 1105.39 2256.85 1091.48 2257.5 1091.2C2258.15 1090.92 2262.99 1094.07 2268.26 1098.21C2273.54 1102.34 2278.59 1105.57 2279.48 1105.4C2281.66 1104.97 2285.24 1100.06 2284.39 1098.67C2283.76 1097.66 2236.85 1060.85 2234.14 1059.24C2233.45 1058.83 2231.85 1059.71 2230.39 1061.29ZM1268.36 1065.68C1266.42 1067.39 1264.83 1069.22 1264.83 1069.76C1264.83 1070.97 1282.64 1120.6 1287.37 1132.54C1290.77 1141.16 1291.4 1143.58 1290.23 1143.58C1289.9 1143.58 1285.97 1140.94 1281.48 1137.72C1265.97 1126.59 1226.98 1100.58 1225.8 1100.58C1224.27 1100.58 1216.83 1106.46 1216.83 1107.66C1216.83 1108.16 1227.06 1115.29 1239.58 1123.51C1252.09 1131.72 1268.18 1142.31 1275.33 1147.02C1282.48 1151.74 1289.98 1156.48 1292 1157.57L1295.68 1159.54L1300 1155.95C1302.38 1153.97 1304.45 1152.04 1304.59 1151.67C1304.74 1151.29 1300.3 1137.72 1294.74 1121.53C1289.17 1105.33 1282.37 1085.44 1279.63 1077.33C1276.44 1067.87 1274.16 1062.58 1273.27 1062.58C1272.52 1062.58 1270.3 1063.97 1268.36 1065.68ZM1198.92 1124.35C1197.04 1125.93 1195.75 1127.83 1195.96 1128.75C1196.45 1130.92 1254.7 1193.58 1256.23 1193.58C1257.56 1193.58 1263.83 1187.46 1263.83 1186.17C1263.83 1185.72 1257.64 1178.76 1250.08 1170.7C1242.51 1162.65 1229.17 1148.3 1220.43 1138.81C1211.68 1129.33 1204.01 1121.58 1203.39 1121.58C1202.76 1121.58 1200.75 1122.83 1198.92 1124.35ZM2284.62 1124.45C2268.49 1129.77 2254.81 1143.43 2249.05 1159.97C2244.1 1174.21 2247.59 1188.5 2258.74 1199.65C2268.5 1209.41 2281.08 1213.79 2293.23 1211.67C2308.71 1208.97 2324.87 1196.35 2332.42 1181.08C2336.25 1173.34 2336.33 1172.96 2336.33 1162.13C2336.33 1151.44 2336.21 1150.87 2332.91 1144.77C2328.77 1137.15 2320.35 1129.17 2312.83 1125.76C2305.32 1122.35 2292.74 1121.77 2284.62 1124.45ZM2310.48 1135.58C2320.39 1139.88 2326.56 1150.57 2325.55 1161.71C2323.93 1179.5 2305.17 1198.89 2287.41 1201.11C2279.87 1202.05 2272.81 1199.57 2266.67 1193.84C2260.26 1187.84 2258.43 1182.82 2259.03 1172.84C2259.63 1162.93 2262.79 1156.49 2271.49 1147.48C2284.24 1134.27 2297.87 1130.11 2310.48 1135.58ZM1170.41 1150.66C1168.93 1152.41 1167.86 1154.41 1168.03 1155.11C1168.19 1155.8 1172.16 1159.9 1176.85 1164.22C1197.31 1183.07 1204.79 1189.78 1211.83 1195.64C1222 1204.1 1222.14 1204.74 1213.26 1202.12C1207.98 1200.57 1188.76 1196.59 1174.83 1194.16C1170.15 1193.34 1159.83 1191.51 1151.9 1190.1L1137.46 1187.52L1133.65 1191.25C1131.54 1193.3 1129.83 1195.73 1129.83 1196.65C1129.83 1197.56 1136.91 1204.8 1145.58 1212.73C1185.55 1249.34 1193.17 1256.1 1194.81 1256.38C1197.07 1256.77 1202.11 1250.9 1201.08 1249.07C1200.66 1248.34 1196.73 1244.47 1192.33 1240.49C1187.93 1236.5 1179.83 1229.1 1174.33 1224.05C1168.83 1218.99 1160.79 1211.77 1156.46 1208C1152.14 1204.23 1149.06 1201 1149.63 1200.81C1150.19 1200.62 1157.78 1202.01 1166.49 1203.91C1175.2 1205.8 1189.08 1208.56 1197.33 1210.03C1205.58 1211.5 1216.8 1213.58 1222.27 1214.65L1232.22 1216.6L1236.02 1212.88C1238.11 1210.84 1239.83 1208.66 1239.83 1208.04C1239.83 1206.73 1176.26 1148.23 1174.35 1147.78C1173.65 1147.61 1171.88 1148.91 1170.41 1150.66ZM2361.23 1188.89C2357.88 1191.74 2343.25 1203.92 2328.73 1215.96C2314.21 1228 2301.98 1238.43 2301.57 1239.14C2300.54 1240.88 2310.98 1254.62 2319.11 1262.23C2326.97 1269.58 2331.53 1271.84 2339.58 1272.39C2344.85 1272.74 2346.68 1272.39 2351.28 1270.14C2361.19 1265.29 2366.42 1255.05 2364.12 1245C2362.92 1239.75 2363.76 1238.84 2368.22 1240.53C2375.93 1243.47 2386.18 1239.97 2391.33 1232.66C2394 1228.86 2394.32 1227.61 2394.29 1221.24C2394.24 1213.29 2392.39 1208.64 2386.05 1200.58C2380.19 1193.13 2370.49 1183.57 2368.85 1183.64C2368.01 1183.68 2364.58 1186.04 2361.23 1188.89ZM1313.83 1195.08C1313.14 1195.9 1312.05 1196.58 1311.4 1196.58C1310.06 1196.58 1304.97 1201.92 1303.08 1205.31C1301.47 1208.18 1301.23 1394.09 1302.83 1395.08C1303.49 1395.48 1303.83 1453.23 1303.83 1565.08C1303.83 1676.92 1303.49 1734.67 1302.83 1735.08C1301.25 1736.05 1301.49 1809 1303.08 1811.84C1304.97 1815.23 1310.06 1820.58 1311.4 1820.58C1312.05 1820.58 1313.14 1821.25 1313.82 1822.07C1314.92 1823.39 1336.21 1823.6 1491.2 1823.82L1667.33 1824.08L1667.64 1828.97C1667.81 1831.65 1667.47 1834.33 1666.89 1834.92C1666.3 1835.5 1665.83 1838.78 1665.83 1842.22C1665.83 1845.65 1665.38 1848.74 1664.83 1849.08C1664.26 1849.42 1663.83 1854.23 1663.83 1860.08C1663.83 1865.92 1663.39 1870.73 1662.83 1871.08C1662.27 1871.42 1661.83 1875.9 1661.83 1881.08C1661.83 1886.25 1661.38 1890.73 1660.83 1891.08C1660.28 1891.42 1659.83 1894.57 1659.83 1898.08C1659.83 1901.59 1659.38 1904.74 1658.83 1905.08C1658.28 1905.42 1657.83 1907.14 1657.83 1908.91C1657.83 1911.54 1656.66 1913.28 1651.55 1918.35C1648.1 1921.78 1644.81 1924.58 1644.24 1924.58C1643.67 1924.58 1641.91 1925.93 1640.33 1927.58C1638.74 1929.23 1636.93 1930.58 1636.29 1930.58C1635.66 1930.58 1634.32 1931.48 1633.33 1932.58C1632.33 1933.68 1630.99 1934.58 1630.36 1934.58C1629.72 1934.58 1627.91 1935.93 1626.33 1937.58C1624.74 1939.23 1622.93 1940.58 1622.29 1940.58C1620.67 1940.58 1617.83 1943.92 1617.83 1945.83C1617.83 1946.71 1619.01 1948.36 1620.46 1949.5L1623.1 1951.58H1757.83H1892.56L1895.19 1949.5C1896.64 1948.36 1897.83 1946.63 1897.83 1945.66C1897.83 1943.8 1894.88 1940.58 1893.18 1940.58C1892.64 1940.58 1890.91 1939.23 1889.33 1937.58C1887.74 1935.93 1885.93 1934.58 1885.29 1934.58C1884.66 1934.58 1883.32 1933.68 1882.33 1932.58C1881.33 1931.48 1879.99 1930.58 1879.36 1930.58C1878.72 1930.58 1876.91 1929.23 1875.33 1927.58C1873.74 1925.93 1871.96 1924.58 1871.36 1924.58C1870.76 1924.58 1867.47 1921.75 1864.05 1918.3C1859.05 1913.26 1857.83 1911.4 1857.83 1908.86C1857.83 1907.12 1857.38 1905.42 1856.83 1905.08C1856.28 1904.74 1855.83 1901.59 1855.83 1898.08C1855.83 1894.57 1855.38 1891.42 1854.83 1891.08C1854.27 1890.73 1853.83 1886.25 1853.83 1881.08C1853.83 1875.9 1853.38 1871.42 1852.83 1871.08C1852.26 1870.73 1851.83 1865.92 1851.83 1860.08C1851.83 1854.23 1851.39 1849.42 1850.83 1849.08C1850.28 1848.74 1849.83 1845.65 1849.83 1842.22C1849.83 1838.78 1849.35 1835.5 1848.77 1834.92C1848.18 1834.33 1847.84 1831.65 1848.02 1828.97L1848.33 1824.08L2024.46 1823.82C2179.44 1823.6 2200.73 1823.39 2201.83 1822.07C2202.51 1821.25 2203.6 1820.58 2204.25 1820.58C2205.59 1820.58 2210.68 1815.23 2212.58 1811.84C2214.16 1809 2214.4 1736.05 2212.83 1735.08C2212.17 1734.67 2211.83 1676.75 2211.83 1564.58C2211.83 1452.4 2212.17 1394.48 2212.83 1394.08C2213.48 1393.67 2213.83 1361.39 2213.83 1300.48C2213.83 1215.1 2213.69 1207.28 2212.14 1204.79C2209.66 1200.79 2205.62 1196.58 2204.26 1196.58C2203.61 1196.58 2202.51 1195.9 2201.83 1195.08C2200.72 1193.75 2150.17 1193.58 1757.83 1193.58C1365.49 1193.58 1314.93 1193.75 1313.83 1195.08ZM2375.88 1202.33C2385.84 1213.54 2386.32 1223.65 2377.18 1229.68C2373.64 1232.01 2366.83 1232.14 2362.23 1229.96C2358.81 1228.34 2348.83 1217.74 2348.83 1215.72C2348.83 1214.35 2368.79 1197.58 2370.43 1197.58C2371.1 1197.58 2373.55 1199.71 2375.88 1202.33ZM1106.8 1224.61C1105.16 1226.36 1103.83 1228.59 1103.83 1229.57C1103.83 1230.76 1111.48 1236.86 1126.53 1247.68C1153.92 1267.36 1155.01 1268.29 1158.26 1274.82C1162.78 1283.88 1160.95 1292.64 1153.06 1299.75C1148.18 1304.15 1142.25 1305.42 1135.06 1303.62C1129.01 1302.09 1127.69 1301.27 1101.14 1282.37C1088.94 1273.68 1078.36 1266.58 1077.64 1266.59C1076.19 1266.6 1071.81 1272.81 1071.85 1274.81C1071.88 1276.52 1114.65 1307.12 1122.83 1311.29C1138.19 1319.12 1150.61 1317.28 1161.1 1305.61C1175.24 1289.88 1174.53 1272.01 1159.17 1257.43C1156.11 1254.52 1116.22 1225.32 1111.05 1222.19C1110.24 1221.7 1108.69 1222.58 1106.8 1224.61ZM2346.65 1227.85C2356.67 1240.83 2357.22 1249.63 2348.5 1257.29C2344.11 1261.15 2339.08 1262.26 2333.48 1260.62C2328.25 1259.08 2315.51 1246.66 2316.01 1243.58C2316.38 1241.24 2338.52 1222.58 2340.92 1222.58C2341.84 1222.58 2344.41 1224.95 2346.65 1227.85ZM2174.33 1466.58V1700.08L1757.58 1700.33L1340.83 1700.58V1466.58V1232.57L1757.58 1232.82L2174.33 1233.08V1466.58ZM2423.33 1269.55C2417.72 1271.21 2408.69 1273.65 2389.33 1278.74C2384.93 1279.89 2377.5 1281.86 2372.83 1283.1C2365.78 1284.98 2357.27 1287.21 2345.58 1290.25C2344.61 1290.51 2343.83 1291.36 2343.83 1292.16C2343.83 1294.49 2348.19 1300.55 2349.88 1300.56C2350.73 1300.57 2357.16 1298.98 2364.15 1297.03C2371.14 1295.08 2377.33 1293.77 2377.91 1294.13C2379.48 1295.1 2394.83 1318.51 2394.8 1319.89C2394.79 1320.54 2390.96 1325.99 2386.3 1332.01C2381.64 1338.02 2377.83 1343.32 2377.83 1343.78C2377.83 1345.35 2383.09 1352.58 2384.23 1352.58C2385.47 1352.58 2385.47 1352.58 2418.83 1309.12C2431.48 1292.65 2441.83 1278.81 2441.83 1278.36C2441.83 1277.92 2440.36 1275.32 2438.58 1272.58C2434.83 1266.86 2433.36 1266.56 2423.33 1269.55ZM2426.81 1280.33C2426.8 1280.74 2423.44 1285.27 2419.34 1290.4C2415.24 1295.53 2409.96 1302.38 2407.61 1305.62C2405.25 1308.86 2402.83 1311.53 2402.23 1311.55C2400.51 1311.59 2387.52 1291.48 2388.58 1290.42C2389.09 1289.91 2396.21 1287.67 2404.41 1285.43C2412.62 1283.2 2420.45 1281 2421.83 1280.56C2425.13 1279.49 2426.83 1279.41 2426.81 1280.33ZM1812.83 1291.55C1805.29 1293.12 1786.2 1298.99 1780.08 1301.61C1778.84 1302.14 1776.81 1302.98 1775.58 1303.47C1766.47 1307.11 1757.19 1311.38 1743.33 1318.31C1730.05 1324.94 1721.96 1329.27 1707.72 1337.33C1690.13 1347.31 1658.74 1368.3 1650.83 1375.39L1645.33 1380.31L1644.63 1389.69C1642.71 1415.45 1642.58 1421.59 1643.72 1435.42C1644.38 1443.48 1645.32 1452.33 1645.8 1455.08C1646.29 1457.83 1647.2 1463.23 1647.82 1467.08C1649.56 1477.89 1652.59 1489.77 1657.47 1504.98C1659.92 1512.62 1661.57 1519.18 1661.13 1519.55C1660.69 1519.92 1658.3 1520.82 1655.83 1521.54C1647.77 1523.88 1639.37 1526.68 1637.11 1527.79C1634.87 1528.89 1631.83 1527.54 1631.83 1525.44C1631.83 1523.44 1620.62 1507.5 1613.58 1499.49C1607.22 1492.25 1592.24 1478.35 1582.87 1471C1581.52 1469.94 1578.93 1467.65 1577.1 1465.91C1574.05 1462.98 1573.88 1462.53 1575 1459.91C1576.49 1456.38 1580.49 1450.84 1583.81 1447.68C1588.05 1443.64 1603.1 1434.13 1616.83 1426.8C1620.4 1424.89 1625.24 1422.24 1627.58 1420.91L1631.83 1418.49V1411.03C1631.83 1405.58 1631.48 1403.58 1630.52 1403.58C1629.32 1403.58 1614.51 1410.9 1605.33 1416.05C1595.21 1421.72 1592.95 1423.08 1584.9 1428.4C1575.03 1434.92 1566.99 1442.59 1564.48 1447.9C1563.52 1449.92 1562.17 1451.58 1561.49 1451.58C1559.75 1451.58 1551.78 1443.12 1547.38 1436.62C1538.59 1423.61 1535.53 1413.24 1535.54 1396.58C1535.57 1372.59 1541.1 1362.87 1566.2 1342.71C1571.08 1338.78 1575.92 1335.58 1576.95 1335.58C1578.62 1335.58 1578.83 1336.41 1578.83 1343.4C1578.83 1347.75 1578.16 1353.18 1577.31 1355.65C1575.11 1362.11 1569.14 1369.44 1562.04 1374.39L1555.83 1378.72V1385.54C1555.83 1393.67 1556.72 1394.37 1563 1391.19C1582.71 1381.21 1593.84 1364.09 1593.82 1343.78C1593.81 1332.67 1589.21 1319.29 1582.15 1309.83C1579.28 1305.98 1577.27 1305.67 1576.45 1308.95C1575.31 1313.47 1567.13 1323.11 1559.34 1329.08C1530 1351.58 1522.3 1364.42 1521.1 1392.81C1519.93 1420.57 1528.54 1441.21 1550.23 1462.59L1557.81 1470.08L1557.82 1478.68C1557.82 1483.41 1558.23 1488.58 1558.72 1490.18C1564.15 1507.75 1564.15 1507.78 1562.81 1513.03C1562.1 1515.81 1560.91 1519.02 1560.16 1520.18C1558.64 1522.51 1551.96 1526.08 1547.33 1527.04C1534.27 1529.75 1533.42 1530.26 1531.9 1536.29C1528.89 1548.29 1518.04 1578.83 1511.4 1594.03C1510.66 1595.7 1509.38 1598.65 1508.55 1600.58C1507.72 1602.5 1505.87 1606.68 1504.43 1609.86C1503 1613.03 1501.83 1615.84 1501.83 1616.08C1501.83 1616.33 1500.42 1619.57 1498.7 1623.3C1490.08 1642.03 1488.83 1644.93 1488.83 1646.2C1488.83 1647.32 1492.28 1647.58 1507.26 1647.58H1525.69L1527.76 1644.67C1528.89 1643.07 1529.83 1641.55 1529.83 1641.29C1529.83 1638.36 1569.59 1578.96 1575.73 1572.73C1579.09 1569.31 1584 1566.24 1593.97 1561.31C1601.48 1557.61 1607.9 1554.58 1608.23 1554.58C1608.91 1554.58 1617.29 1550.96 1620.15 1549.44C1621.43 1548.76 1622.45 1548.85 1623.52 1549.73C1624.79 1550.79 1624.93 1552.53 1624.36 1559.87C1623.59 1569.72 1621.12 1578.34 1616.76 1586.46C1615.17 1589.42 1614.08 1592.17 1614.33 1592.58C1614.58 1592.98 1618.95 1593.63 1624.05 1594.01C1629.15 1594.39 1634.68 1595.11 1636.33 1595.62C1652.88 1600.67 1660.13 1604.05 1671.83 1612.18C1680.33 1618.09 1695.18 1633.02 1701.82 1642.33L1706.28 1648.58H1730.05C1750.03 1648.58 1753.83 1648.35 1753.83 1647.14C1753.83 1645.96 1746.84 1635.92 1736.04 1621.58C1727.77 1610.59 1716.04 1592.43 1704.06 1572.08C1695.14 1556.91 1683.49 1532.88 1684.19 1531.07C1685.13 1528.62 1706.3 1529 1715.83 1531.64C1735.46 1537.08 1750.33 1549.98 1759.56 1569.58C1762.87 1576.61 1766.34 1587.55 1767.41 1594.3C1768.54 1601.5 1769.48 1602.08 1775.86 1599.54C1778.87 1598.35 1783.35 1596.74 1785.83 1595.98C1791.4 1594.27 1807.12 1594.18 1811.83 1595.84C1828.09 1601.58 1843.26 1616.92 1856.07 1640.58L1859.59 1647.08L1885.23 1647.34C1905.99 1647.56 1910.97 1647.35 1911.39 1646.26C1911.68 1645.52 1910.01 1641.8 1907.69 1638C1900.75 1626.6 1893.47 1610.17 1890.66 1599.58C1886.41 1583.54 1885.55 1568.35 1888.39 1559.66C1892.16 1548.15 1902.38 1541.99 1911.53 1545.72C1919.63 1549.02 1921.57 1550.29 1927.2 1555.96C1933.73 1562.54 1938.9 1571.66 1940.9 1580.16C1942.8 1588.2 1942.63 1588.08 1951.43 1588.08H1959.33L1960.92 1574.58C1963.43 1553.29 1965.12 1548.45 1972.83 1540.45C1977.87 1535.2 1984.63 1532.58 1993.08 1532.58C1997.17 1532.58 1999.1 1531.85 2004.81 1528.15C2011.42 1523.88 2011.69 1523.54 2012.67 1518.4C2014.25 1510.2 2015.33 1485.65 2015.33 1458.08C2015.33 1424.53 2013.73 1400.51 2010.33 1383.08L2009.16 1377.08L2004.74 1376.83C1990.41 1376.03 1972.59 1372.2 1962.98 1367.85C1958.04 1365.61 1957.69 1365.24 1958.33 1362.75C1958.71 1361.28 1959.41 1357.6 1959.89 1354.58C1960.37 1351.55 1961.23 1347.39 1961.79 1345.33C1962.36 1343.26 1963.22 1340.11 1963.71 1338.33C1967.1 1325.82 1975.18 1307.86 1982 1297.69C1985.85 1291.95 1985.29 1290.46 1979.75 1291.7C1969.1 1294.1 1954.17 1300.34 1946.15 1305.75C1943.85 1307.31 1941.49 1308.58 1940.91 1308.58C1939.01 1308.58 1918.27 1329.96 1915.51 1334.75C1912.27 1340.41 1912.13 1344.28 1914.97 1349.87C1917.59 1355.02 1927.57 1364.97 1935.18 1370.03C1938.29 1372.09 1941.13 1374.25 1941.49 1374.84C1941.86 1375.43 1942.07 1378.2 1941.98 1381C1941.72 1388.31 1944.32 1405.94 1946.83 1413.95C1948.35 1418.81 1948.67 1421.13 1947.92 1421.89C1947.3 1422.5 1942.47 1422.97 1936.59 1422.99C1927.84 1423.02 1925.63 1422.68 1921.62 1420.71C1915.57 1417.74 1909.34 1410.94 1906.07 1403.75C1903.84 1398.85 1903.47 1396.64 1903.4 1387.58C1903.32 1376.87 1904.45 1371.33 1908.03 1364.8C1909.02 1362.99 1909.83 1360.72 1909.83 1359.74C1909.83 1356.12 1903.7 1348.68 1888.72 1334.08C1861.19 1307.25 1845.18 1295.32 1830.94 1291C1825.23 1289.27 1823.47 1289.32 1812.83 1291.55ZM1833.75 1307.81C1844.74 1313.99 1858.15 1325.06 1877.48 1343.93C1885.35 1351.62 1892.07 1358.77 1892.41 1359.84C1892.75 1360.9 1892.36 1363.64 1891.54 1365.92C1887.63 1376.91 1886.93 1389.44 1889.58 1401.19C1891.3 1408.81 1896.61 1418.5 1902.41 1424.58C1915.49 1438.29 1933.75 1441.89 1955.41 1435.01C1962.12 1432.88 1969.71 1429.32 1970.19 1428.08C1970.43 1427.44 1969.29 1424.93 1967.65 1422.5C1961.44 1413.29 1958.53 1404.49 1957.35 1391.33C1956.75 1384.64 1956.88 1383.49 1958.31 1382.94C1959.22 1382.6 1960.94 1382.77 1962.14 1383.33C1963.34 1383.89 1966.35 1384.9 1968.83 1385.58C1971.3 1386.25 1974.45 1387.17 1975.83 1387.61C1977.2 1388.06 1982.15 1388.98 1986.83 1389.67C1991.5 1390.35 1995.85 1391.31 1996.49 1391.8C1997.92 1392.88 1998.37 1398.03 1999.9 1431.08C2001.37 1462.79 2000.1 1510.82 1997.74 1512.96C1996.96 1513.66 1992.77 1514.8 1988.42 1515.5C1984.08 1516.19 1979.35 1517.22 1977.92 1517.79C1963.87 1523.4 1955.19 1532.84 1950.61 1547.51C1949.91 1549.75 1948.7 1551.58 1947.93 1551.58C1947.15 1551.58 1944.97 1549.77 1943.08 1547.56C1938.24 1541.91 1928.4 1535.2 1921.26 1532.7C1911.98 1529.45 1899.49 1529.7 1892.17 1533.28C1884.38 1537.1 1878.67 1543.83 1875.18 1553.32C1872.53 1560.52 1872.33 1562.04 1872.45 1574.58C1872.61 1592.12 1876.17 1607.1 1884.5 1625.35C1885.83 1628.26 1886.64 1631.07 1886.31 1631.6C1885.98 1632.14 1881.92 1632.58 1877.29 1632.58C1869.19 1632.58 1868.81 1632.47 1867.17 1629.83C1852.49 1606.07 1840.8 1593.66 1825.73 1585.82C1814.15 1579.79 1802.64 1577.95 1789.69 1580.05C1784.58 1580.87 1780.13 1581.22 1779.81 1580.81C1779.48 1580.41 1778.18 1576.93 1776.91 1573.08C1769.93 1551.82 1754.11 1532.51 1736.67 1523.94C1721.57 1516.51 1709.71 1514.16 1689.99 1514.71L1676.51 1515.08L1672.79 1504.34C1670.74 1498.44 1668.82 1492.59 1668.52 1491.34C1668.21 1490.1 1667.48 1487.28 1666.88 1485.08C1664.75 1477.19 1662.2 1464.8 1660.81 1455.58C1658.91 1442.91 1657.78 1420.89 1658.34 1407.08C1659.19 1386.12 1658.55 1387.78 1668.6 1380.36C1678.67 1372.94 1698.46 1359.58 1699.39 1359.58C1699.73 1359.58 1701.21 1358.73 1702.67 1357.69C1704.13 1356.66 1707.01 1354.86 1709.08 1353.69C1711.14 1352.53 1714.51 1350.6 1716.58 1349.42C1730.96 1341.14 1759.27 1326.66 1769.85 1322.18C1772.31 1321.13 1776.13 1319.49 1778.33 1318.52C1792.39 1312.32 1810.93 1306.31 1819.33 1305.22C1824.09 1304.61 1829.89 1305.65 1833.75 1307.81ZM1957.24 1315.44C1957.54 1315.92 1956.38 1319.63 1954.66 1323.69C1950.02 1334.69 1948.84 1338.28 1946.81 1347.58C1944.49 1358.22 1943.35 1358.55 1935.03 1351.02C1927.82 1344.49 1927.37 1342.52 1931.74 1336.26C1935.23 1331.25 1944.61 1322.12 1950.77 1317.74C1955.49 1314.38 1956.39 1314.06 1957.24 1315.44ZM1590.92 1498.31C1605.13 1512.13 1611.16 1519.18 1616.31 1527.96C1619.76 1533.85 1619.59 1534.06 1607.33 1539.05C1596.62 1543.4 1577.09 1552.9 1570.92 1556.76C1568.24 1558.45 1563.79 1563.14 1559.53 1568.8C1552.04 1578.75 1526.86 1616.03 1526.77 1617.31C1526.74 1617.73 1524.6 1621.23 1522.02 1625.08C1518.3 1630.62 1516.81 1632.08 1514.83 1632.08C1511.28 1632.08 1511.65 1630.26 1518.25 1615.08C1521.36 1607.93 1524.29 1601.18 1524.77 1600.08C1525.24 1598.98 1526.52 1596.05 1527.61 1593.58C1532.77 1581.85 1544.83 1547.73 1544.83 1544.85C1544.83 1543.47 1551 1540.58 1553.96 1540.58C1557.19 1540.58 1564.62 1536.54 1568.72 1532.56C1572.34 1529.05 1573.47 1527.16 1576.68 1519.28C1578.48 1514.88 1578.07 1502.67 1575.91 1495.99C1570.89 1480.5 1572.93 1480.81 1590.92 1498.31ZM1067.29 1514.81C1067.02 1515.51 1066.92 1531.83 1067.06 1551.08L1067.33 1586.08H1083.33H1099.33V1581.58V1577.08L1088.33 1576.58L1077.33 1576.08V1565.58V1555.08L1083.33 1554.58L1089.33 1554.08V1549.58V1545.08L1083.33 1544.58L1077.33 1544.08V1534.08V1524.08L1087.83 1523.58L1098.33 1523.08V1518.58V1514.08L1083.05 1513.8C1071.35 1513.59 1067.67 1513.82 1067.29 1514.81ZM1106.38 1516.92C1103.91 1520.15 1103.83 1520.76 1103.83 1534.73V1549.2L1106.58 1551.84C1109.06 1554.21 1110.23 1554.52 1117.83 1554.78L1126.33 1555.08V1565.58V1576.08L1120.46 1576.38C1116.13 1576.6 1114.13 1576.26 1112.81 1575.06C1111.7 1574.05 1109.74 1573.56 1107.67 1573.76C1104.68 1574.04 1104.29 1574.43 1104 1577.45C1103.76 1580.03 1104.32 1581.49 1106.44 1583.7C1109.14 1586.51 1109.42 1586.58 1119.82 1586.58H1130.43L1133.63 1583.28L1136.83 1579.98V1564.97V1549.95L1133.58 1547.51C1130.96 1545.55 1128.76 1544.98 1122.33 1544.58L1114.33 1544.08V1534.08V1524.08L1119.68 1523.77C1123.56 1523.55 1125.54 1523.91 1126.84 1525.09C1128.01 1526.15 1129.96 1526.6 1132.48 1526.39C1136.04 1526.1 1136.35 1525.83 1136.65 1522.71C1136.9 1520.12 1136.33 1518.66 1134.21 1516.46C1131.49 1513.62 1131.29 1513.58 1120.19 1513.58H1108.93L1106.38 1516.92ZM1143.23 1514.95C1142.93 1515.74 1142.83 1517.89 1143.01 1519.73C1143.32 1523.01 1143.44 1523.09 1148.83 1523.58L1154.33 1524.08L1154.83 1555.08L1155.33 1586.08H1159.33H1163.33L1163.83 1555.08L1164.33 1524.08L1169.83 1523.58L1175.33 1523.08V1518.58V1514.08L1159.55 1513.8C1146.62 1513.57 1143.68 1513.78 1143.23 1514.95ZM1183.28 1514.83C1183.02 1515.52 1182.92 1531.83 1183.06 1551.08L1183.33 1586.08L1195.74 1586.36L1208.16 1586.64L1211.49 1583.41L1214.83 1580.18V1567.43C1214.83 1559.67 1214.36 1553.64 1213.63 1552.05C1212.71 1550.02 1212.71 1549 1213.63 1547.51C1214.4 1546.28 1214.83 1540.9 1214.83 1532.39C1214.83 1519.42 1214.78 1519.13 1212.14 1516.38C1209.47 1513.59 1209.37 1513.58 1196.61 1513.58C1187.22 1513.58 1183.63 1513.91 1183.28 1514.83ZM2265.52 1515.95C2262.97 1518.03 2262.74 1518.75 2263.02 1523.66L2263.33 1529.08H2266.83C2270.16 1529.08 2270.35 1528.89 2270.83 1525.08L2271.33 1521.08H2277.83H2284.33V1532.58V1544.08L2276.23 1544.36C2268.85 1544.63 2267.89 1544.9 2265.45 1547.44L2262.78 1550.23L2263.05 1568.16L2263.33 1586.08H2278.33H2293.33V1577.08V1568.08H2289.33H2285.33L2284.83 1573.58L2284.33 1579.08H2277.83H2271.33V1566.08V1553.08L2279.82 1552.78C2287.43 1552.52 2288.6 1552.21 2291.07 1549.84L2293.83 1547.2V1532.94V1518.68L2290.48 1516.13C2287.43 1513.8 2286.3 1513.58 2277.73 1513.61C2269.43 1513.64 2268 1513.92 2265.52 1515.95ZM2303.58 1515.9L2300.83 1518.15V1549.56V1580.97L2303.51 1583.77C2306.09 1586.46 2306.58 1586.58 2315.83 1586.58C2325.07 1586.58 2325.56 1586.46 2328.14 1583.77L2330.83 1580.97V1550.08V1519.18L2328.14 1516.38C2325.56 1513.68 2325.08 1513.58 2315.89 1513.61C2307.48 1513.64 2305.99 1513.92 2303.58 1515.9ZM2340.56 1516.33C2337.16 1519.88 2337.08 1522.34 2340.33 1523.58L2342.83 1524.53V1551.58V1578.63L2340.26 1579.6C2338.23 1580.37 2337.76 1581.15 2338.01 1583.33C2338.32 1586.07 2338.34 1586.08 2346.33 1586.08C2354.31 1586.08 2354.33 1586.07 2354.64 1583.33C2354.89 1581.15 2354.43 1580.37 2352.41 1579.61L2349.85 1578.64L2349.59 1546.36L2349.33 1514.08L2346.31 1513.78C2344.06 1513.56 2342.59 1514.21 2340.56 1516.33ZM2381.14 1514.78C2380.59 1515.49 2375.76 1525.59 2370.42 1537.22C2362.08 1555.36 2360.74 1558.98 2361.01 1562.72L2361.33 1567.08L2371.83 1567.58L2382.33 1568.08L2382.63 1573.26C2382.88 1577.69 2382.62 1578.62 2380.82 1579.58C2379.32 1580.38 2378.8 1581.49 2379.02 1583.39C2379.32 1586.05 2379.39 1586.08 2387.33 1586.08C2395.26 1586.08 2395.33 1586.05 2395.64 1583.39C2395.85 1581.5 2395.34 1580.38 2393.89 1579.61C2390.93 1578.03 2390.89 1569.15 2393.83 1567.58C2396.75 1566.01 2396.46 1561.77 2393.34 1560.58L2390.86 1559.64L2390.59 1536.86L2390.33 1514.08L2386.24 1513.78C2383.75 1513.59 2381.76 1513.98 2381.14 1514.78ZM2322.33 1550.08V1579.08H2315.83H2309.33L2309.06 1551.09C2308.91 1535.7 2309.02 1522.51 2309.3 1521.79C2309.66 1520.86 2311.6 1520.56 2316.06 1520.78L2322.33 1521.08V1550.08ZM1203.33 1533.58V1543.08H1197.83H1192.33L1192.03 1534.66C1191.87 1530.03 1191.98 1525.62 1192.27 1524.86C1192.65 1523.86 1194.29 1523.56 1198.06 1523.77L1203.33 1524.08V1533.58ZM1668.03 1535.33C1668.87 1536.29 1670.4 1539.09 1671.44 1541.55C1680.2 1562.3 1709.95 1612.61 1722.46 1627.85C1725.61 1631.69 1724.6 1633.58 1719.41 1633.58C1714.41 1633.58 1713.6 1633 1706.69 1624.58C1689.44 1603.53 1666.4 1588.27 1641.58 1581.45C1637.16 1580.23 1636.33 1579.49 1636.75 1577.18C1639.46 1562.64 1639.94 1558.12 1639.45 1551.42C1639.05 1545.78 1639.25 1543.47 1640.21 1542.67C1641.25 1541.81 1663.61 1533.97 1665.92 1533.66C1666.25 1533.61 1667.2 1534.36 1668.03 1535.33ZM2382.61 1546.83L2382.33 1559.08L2377.08 1559.38C2370.64 1559.75 2370.62 1559.64 2375.41 1547.88C2377.38 1543.04 2379.4 1538.06 2379.89 1536.83C2380.38 1535.59 2381.25 1534.58 2381.83 1534.58C2382.53 1534.58 2382.79 1538.72 2382.61 1546.83ZM1203.33 1565.08V1576.08H1197.83H1192.33L1192.04 1566.15C1191.88 1560.69 1191.99 1555.6 1192.28 1554.84C1192.65 1553.86 1194.31 1553.56 1198.06 1553.77L1203.33 1554.08V1565.08ZM567.278 2011.84C567.012 2012.53 566.914 2026.37 567.06 2042.59L567.325 2072.08L582.325 2072.58L597.325 2073.08V2262.58V2452.08L582.325 2452.58L567.325 2453.08V2483.08V2513.08L679.312 2513.33L791.299 2513.58L812.062 2492.84L832.825 2472.09V2262.09V2052.09L812.084 2031.33L791.343 2010.58H679.553C590.497 2010.58 567.664 2010.83 567.278 2011.84ZM938.28 2011.83C938.013 2012.53 937.914 2026.37 938.06 2042.59L938.325 2072.08L953.325 2072.58L968.325 2073.08V2262.58V2452.08L953.325 2452.58L938.325 2453.08V2483.08V2513.08H1070.83H1203.33V2461.58V2410.08H1172.83H1142.33L1141.83 2431.08L1141.33 2452.08H1086.33H1031.33V2369.58V2287.08L1062.33 2286.58L1093.33 2286.08V2256.08V2226.08L1062.33 2225.58L1031.33 2225.08V2149.08V2073.08H1086.33H1141.33L1141.83 2093.58L1142.33 2114.08H1172.83H1203.33V2062.58V2011.08L1071.05 2010.82C965.109 2010.62 938.668 2010.82 938.28 2011.83ZM1287.28 2011.83C1287.01 2012.53 1286.91 2026.37 1287.06 2042.59L1287.33 2072.08L1305.81 2072.58C1321.19 2072.99 1324.35 2073.33 1324.57 2074.58C1324.86 2076.19 1361.98 2372.42 1364.3 2391.58C1365.96 2405.36 1371.92 2452.66 1375.31 2479.08C1376.66 2489.53 1378.06 2501 1378.42 2504.58C1378.79 2508.15 1379.53 2511.64 1380.08 2512.33C1380.85 2513.29 1391.92 2513.58 1429.33 2513.58C1466.76 2513.58 1477.79 2513.3 1478.52 2512.33C1479.03 2511.64 1481.34 2495.78 1483.64 2477.08C1485.95 2458.38 1489.64 2428.9 1491.85 2411.58C1496.4 2375.92 1502.7 2326.24 1512.84 2246.08C1516.66 2215.83 1521.79 2175.33 1524.24 2156.08C1526.68 2136.83 1529.87 2111.63 1531.32 2100.08C1532.77 2088.53 1534.29 2077.73 1534.7 2076.08L1535.45 2073.08L1552.89 2072.58L1570.33 2072.08V2041.58V2011.08H1509.33H1448.33V2041.58V2072.08L1459.83 2072.58L1471.33 2073.08L1471.21 2076.58C1470.97 2083.83 1430.37 2405.58 1429.69 2405.58C1428.72 2405.58 1428.1 2402.18 1426.34 2387.08C1425.51 2379.93 1423.7 2365.3 1422.31 2354.58C1420.93 2343.85 1418.93 2327.88 1417.87 2319.08C1416.81 2310.28 1409.64 2252.9 1401.95 2191.58C1394.25 2130.25 1387.81 2078.28 1387.64 2076.08L1387.33 2072.08L1399.33 2071.58L1411.33 2071.08V2041.08V2011.08L1349.55 2010.82C1300.36 2010.61 1287.67 2010.82 1287.28 2011.83ZM1682.57 2031.33L1661.83 2052.09V2262.09V2472.09L1682.58 2492.83L1703.34 2513.58H1779.55H1855.75L1876.3 2493.14L1896.85 2472.7L1896.59 2441.39L1896.33 2410.08H1866.33H1836.33L1835.83 2431.08L1835.33 2452.08H1779.33H1723.33V2262.58V2073.08H1779.33H1835.33L1835.83 2093.58L1836.33 2114.08H1866.33H1896.33V2062.58V2011.08H1866.33H1836.33L1836.04 2022.83C1835.87 2030.25 1835.37 2034.58 1834.7 2034.58C1834.12 2034.58 1828.14 2029.18 1821.41 2022.58L1809.17 2010.58H1756.24H1703.31L1682.57 2031.33ZM2030.28 2011.83C2030.01 2012.53 2029.91 2026.37 2030.06 2042.59L2030.33 2072.08L2045.33 2072.58L2060.33 2073.08V2262.58V2452.08L2045.33 2452.58L2030.33 2453.08V2483.08V2513.08H2163.33H2296.33V2461.58V2410.08H2265.83H2235.33L2234.83 2431.08L2234.33 2452.08H2178.83H2123.33V2262.58V2073.08L2137.83 2072.58L2152.33 2072.08V2041.58V2011.08L2091.55 2010.82C2043.17 2010.61 2030.67 2010.82 2030.28 2011.83ZM2371.28 2011.83C2371.01 2012.53 2370.91 2026.37 2371.06 2042.59L2371.33 2072.08L2386.33 2072.58L2401.33 2073.08L2401.58 2272.57L2401.83 2472.06L2422.57 2492.82L2443.31 2513.58H2520.33H2597.34L2618.08 2492.82L2638.82 2472.06L2639.07 2272.57L2639.33 2073.08L2654.33 2072.58L2669.33 2072.08V2041.58V2011.08H2607.83H2546.33V2041.58V2072.08L2561.33 2072.58L2576.33 2073.08V2262.58V2452.08H2519.83H2463.33V2262.58V2073.08L2478.33 2072.58L2493.33 2072.08V2041.58V2011.08L2432.55 2010.82C2384.17 2010.61 2371.67 2010.82 2371.28 2011.83ZM2765.28 2011.84C2765.01 2012.53 2764.91 2026.37 2765.06 2042.59L2765.33 2072.08L2780.33 2072.58L2795.33 2073.08V2262.58V2452.08L2780.33 2452.58L2765.33 2453.08V2483.08V2513.08L2877.95 2513.33L2990.58 2513.58L3010.7 2492.7L3030.83 2471.82V2379.27V2286.73L3015.83 2272.44C3007.58 2264.59 3000.83 2257.42 3000.83 2256.51C3000.83 2255.61 3007.58 2248.42 3015.83 2240.54L3030.83 2226.22V2138.99V2051.77L3010.08 2031.17L2989.33 2010.58L2877.54 2010.58C2788.5 2010.58 2765.66 2010.83 2765.28 2011.84ZM770.325 2262.58V2452.08H715.325H660.325L660.068 2263.58C659.927 2159.9 660.027 2074.51 660.29 2073.82C660.668 2072.82 672.256 2072.61 715.547 2072.82L770.325 2073.08V2262.58ZM2969.33 2149.08V2225.08H2913.83H2858.33L2858.07 2150.08C2857.92 2108.83 2858.02 2074.51 2858.29 2073.82C2858.67 2072.82 2870.36 2072.61 2914.05 2072.82L2969.33 2073.08V2149.08ZM2969.33 2371.08V2452.08H2913.83H2858.33L2858.07 2372.08C2857.93 2328.08 2858.02 2291.51 2858.29 2290.82C2858.67 2289.82 2870.36 2289.61 2914.05 2289.82L2969.33 2290.08V2371.08ZM496.679 2442.37C485.765 2445.31 477.777 2452.07 473.077 2462.34C465.759 2478.32 468.459 2496.96 479.835 2508.99C486.999 2516.57 494.769 2519.92 505.325 2519.99C516.941 2520.08 524.453 2517.06 532.381 2509.13C540.773 2500.74 543.35 2493.86 543.26 2480.08C543.187 2468.84 541.217 2462.22 535.725 2454.75C527.491 2443.56 511.299 2438.42 496.679 2442.37ZM1697.83 2580.85C1697.55 2581.1 1663.35 2581.64 1621.83 2582.03C1580.3 2582.43 1544.53 2582.89 1542.33 2583.07C1540.13 2583.24 1520.33 2583.66 1498.33 2583.99C1476.33 2584.33 1453.6 2584.82 1447.83 2585.08C1442.05 2585.34 1428.33 2585.79 1417.33 2586.09C1386.35 2586.92 1321.03 2589.5 1287.58 2591.21C1280.56 2591.56 1274.83 2592.22 1274.83 2592.67C1274.83 2593.11 1281.46 2593.62 1289.58 2593.79C1321.49 2594.48 2285.71 2594.03 2286.41 2593.33C2286.82 2592.91 2286.97 2592.4 2286.74 2592.19C2285.7 2591.24 2185.32 2587.04 2129.33 2585.6C2107.88 2585.05 2081.78 2584.37 2071.33 2584.1C2060.88 2583.83 2034.33 2583.37 2012.33 2583.08C1990.33 2582.78 1964.9 2582.32 1955.83 2582.05C1932.93 2581.37 1698.44 2580.28 1697.83 2580.85ZM1935.39 2585.68C1936.43 2587.36 1932.12 2591.27 1930.74 2589.89C1929.94 2589.09 1929.95 2588.22 1930.77 2586.68C1931.99 2584.41 1934.29 2583.9 1935.39 2585.68Z" fill="#382F29"/>
</svg>
