<svg width="1545" height="604" viewBox="0 0 1545 604" fill="none" xmlns="http://www.w3.org/2000/svg">
<g opacity="0.15" clip-path="url(#clip0_73_156)">
<path d="M-346.969 1.02057C-280.082 -2.51593 -222.79 9.2233 -164.116 37.7118C-120.147 59.0618 -103.383 65.2562 -52.2142 66.5387C6.82026 68.0122 94.7029 67.199 153.756 87.0046C206.537 104.693 237.034 132.466 299.13 132.27C387.952 131.986 467.098 104.654 539.325 87.1956C602.379 71.9471 666.311 59.5967 739.813 55.045C781.337 52.4745 844.285 47.4754 885.529 69.6222C910.519 83.0424 918.136 100.354 951.278 109.801C980.618 118.162 1026.77 121.589 1040.09 108.398C1050.55 98.0289 1046.58 82.1091 1053.65 70.61C1064.58 52.8293 1097.33 42.1215 1132.12 38.0556C1151.05 35.8399 1187.76 32.7345 1206.08 41.0737C1234.68 54.0954 1257.73 77.3228 1286.08 91.3542C1329.76 112.939 1436.31 108.638 1482.02 109.326C1568.85 110.63 1654.39 108.6 1739.4 106.543" stroke="#424242" stroke-width="1.5" stroke-miterlimit="10"/>
<path d="M-343.553 19.4508C-276.416 16.4764 -220.164 29.3399 -162.815 58.1995C-119.58 79.9643 -102.804 86.4752 -51.6662 87.4576C2.86296 88.5054 87.1614 85.2745 142.276 103.432C193.183 120.225 218.043 145.411 278.409 145.259C370.99 145.019 455.587 119.608 534.615 104.223C607.878 89.8496 682.405 80.9745 757.386 77.694C796.775 75.9366 861.927 69.8787 901.714 90.5356C924.514 102.373 929.393 117.054 959.871 125.164C988.975 132.903 1034.54 135.784 1047.54 122.921C1058 112.551 1054.03 96.6263 1061.1 85.1326C1072.02 67.3519 1104.75 56.6496 1139.59 52.5782C1158.52 50.3952 1195.23 47.2571 1213.55 55.6017C1242.18 68.6235 1265.2 91.8509 1293.56 105.877C1337.23 127.462 1443.78 123.166 1489.49 123.854C1576.32 125.158 1661.86 123.128 1746.87 121.071" stroke="#424242" stroke-width="1.5" stroke-miterlimit="10"/>
<path d="M-342.482 40.1677C-274.998 38.0283 -220.101 52.3927 -164.769 81.8635C-123.127 104.059 -106.525 111.689 -55.8229 111.88C-8.14488 112.071 71.4492 105.566 120.502 121.289C168.479 136.668 183.762 157.26 241.353 157.402C341.868 157.642 434.598 135.921 524.808 123.243C606.698 111.727 690.287 106.379 779.445 104.747C815.257 104.092 885.411 96.8282 922.424 114.784C942.268 124.405 943.045 135.255 969.846 141.558C998.309 148.249 1042.65 149.636 1054.97 137.454C1065.43 127.085 1061.46 111.16 1068.53 99.6606C1079.45 81.8635 1112.21 71.1721 1147 67.1281C1165.93 64.9451 1202.64 61.807 1220.96 70.1516C1249.58 83.1679 1272.6 106.401 1300.96 120.427C1344.63 142.011 1451.18 137.716 1496.89 138.404C1583.72 139.708 1669.26 137.678 1754.28 135.621" stroke="#424242" stroke-width="1.5" stroke-miterlimit="10"/>
<path d="M-337.193 56.7915C-269.547 54.9905 -215.291 70.0097 -160.7 99.6607C-119.512 122.037 -102.736 129.825 -52.0893 129.907C-6.63276 129.983 71.4866 122.026 118.474 136.723C165.1 151.311 178.678 170.931 234.887 170.991C337.257 171.095 432.687 150.427 526.338 139.119C612.479 128.717 700.274 125.409 792.812 124.433C827.596 124.056 898.528 116.65 934.975 133.41C953.543 141.946 953.73 150.798 978.533 156.261C1006.91 162.51 1050.97 163.956 1063.22 151.857C1073.69 141.487 1069.71 125.568 1076.75 114.069C1087.61 96.3097 1120.26 85.6074 1155 81.5415C1173.89 79.3585 1210.52 76.2477 1228.81 84.5869C1257.36 97.6141 1280.31 120.847 1308.66 134.884C1352.27 156.474 1458.79 152.19 1504.44 152.894C1591.22 154.204 1676.71 152.179 1761.68 150.127" stroke="#424242" stroke-width="1.5" stroke-miterlimit="10"/>
<path d="M-325.047 66.6915C-258.103 64.2356 -203.039 78.076 -147.172 107.296C-104.64 129.541 -87.963 136.45 -36.9372 136.941C20.5105 137.487 102.849 131.593 162.418 147.665C215.137 161.882 244.557 185.072 303.243 185.224C395.245 185.47 480.166 166.308 563.705 155.595C637.693 146.11 712.601 143.982 792.7 143.649C834.323 143.474 892.524 137.956 937.065 150.744C958.702 156.954 971.501 165.348 995.477 168.792C1024.46 172.95 1069.76 176.514 1082.12 163.471C1091.84 153.216 1086.86 137.427 1093.06 126.037C1102.6 108.524 1133.61 97.9634 1167.2 94.0339C1185.57 91.8836 1220.91 89.0675 1238.61 97.363C1266.57 110.461 1288.52 133.809 1316.31 147.927C1358.83 169.539 1464.24 165.479 1508.96 166.227C1594.52 167.651 1678.84 165.719 1762.57 163.771" stroke="#424242" stroke-width="1.5" stroke-miterlimit="10"/>
<path d="M-311.63 75.2217C-245.552 71.9471 -189.504 84.2758 -132.007 112.879C-87.882 134.857 -71.1368 140.805 -19.6878 141.749C51.9101 143.076 142.388 139.97 216.5 157.533C277.152 171.908 324.575 198.879 388.563 199.37C467.385 199.976 538.908 182.605 609.405 172.628C668.091 164.344 726.248 163.814 790.578 164.256C838.219 164.584 887.794 161.844 937.794 168.934C964.059 172.661 988.732 178.757 1015.12 180.76C1044.18 182.943 1092.4 188.019 1104.49 174.211C1113.37 164.065 1101.1 148.446 1106.27 137.176C1114.16 119.963 1149.58 109.566 1181.76 105.79C1199.42 103.721 1233.12 101.216 1250.08 109.501C1277.12 122.752 1297.46 146.263 1324.41 160.551C1365.4 182.255 1469.4 178.452 1512.78 179.27C1596.79 180.853 1679.55 179.036 1761.75 177.213" stroke="#424242" stroke-width="1.5" stroke-miterlimit="10"/>
<path d="M-301.488 87.8669C-235.484 84.2594 -178.465 95.7913 -120.109 124.307C-75.7915 145.968 -59.4384 152.141 -8.10139 153.036C64.6229 154.296 160.831 151.944 235.827 171.106C296.025 186.48 338.713 214.854 403.41 215.066C480.266 215.317 549.406 198.759 618.266 188.957C676.137 180.722 734.294 181.186 797.478 181.049C846.768 180.946 897.215 179.248 948.776 184.87C975.783 187.822 1002.22 192.669 1029.12 194.311C1058.28 196.101 1106.99 201.668 1119.19 187.702C1128.01 177.6 1115.57 161.997 1120.47 150.744C1127.94 133.656 1162.72 123.292 1194.52 119.57C1212 117.529 1245.2 115.149 1261.93 123.39C1288.75 136.636 1308.6 160.223 1335.36 174.533C1375.94 196.265 1479.73 192.543 1522.84 193.383C1606.57 195.021 1689.06 193.236 1770.98 191.452" stroke="#424242" stroke-width="1.5" stroke-miterlimit="10"/>
<path d="M-284.251 99.617C-217.482 95.6493 -158.603 106.45 -97.9877 134.687C-53.365 155.475 -36.2029 161.79 14.4994 163.105C50.5909 164.038 87.2299 166.379 123.962 169.174C154.615 171.52 195.286 171.417 223.176 185.612C264.209 206.493 256.947 236.111 321.7 236.913C408.45 237.955 488.915 219.929 567.925 210.553C649.292 200.899 736.21 201.592 822.494 198.994C872.841 197.482 930.382 193.023 984.905 200.713C1004.39 203.442 1021.88 207.726 1041.53 209.085C1069.71 211.028 1114.93 215.596 1126.59 202.247C1135.42 192.145 1122.97 176.541 1127.87 165.288C1135.34 148.2 1170.12 137.836 1201.92 134.114C1219.4 132.068 1252.6 129.688 1269.33 137.935C1296.15 151.18 1316 174.768 1342.76 189.083C1383.34 210.815 1487.16 207.093 1530.23 207.933C1613.97 209.571 1696.45 207.786 1778.39 205.996" stroke="#424242" stroke-width="1.5" stroke-miterlimit="10"/>
<path d="M-266.224 111.176C-198.571 106.81 -137.713 116.868 -74.6465 144.757C-29.7997 164.584 -11.642 170.986 38.3322 172.819C79.072 174.315 186.357 175.226 217.875 199.316C246.984 221.561 225.342 252.696 291.626 253.995C389.322 255.905 482.189 236.493 572.15 227.362C667.493 217.691 768.35 218.303 868.286 215.47C913.407 214.188 973.667 207.579 1023.45 216.627C1035.12 218.745 1040.88 222.412 1054.57 223.837C1081.26 226.62 1123.41 228.929 1134.04 216.742C1142.87 206.64 1130.42 191.037 1135.33 179.783C1142.79 162.696 1177.58 152.332 1209.38 148.61C1226.85 146.568 1260.05 144.189 1276.79 152.457C1303.61 165.703 1323.46 189.29 1350.22 203.6C1390.8 225.332 1494.62 221.61 1537.7 222.45C1621.43 224.088 1703.92 222.303 1785.85 220.513" stroke="#424242" stroke-width="1.5" stroke-miterlimit="10"/>
<path d="M-258.638 125.65C-190.998 121.284 -130.097 131.32 -67.0548 159.235C-22.0214 179.172 -4.09387 185.492 46.1106 187.309C90.5653 188.914 186.923 190.267 224.763 213.806C261.259 236.515 255.254 265.456 320.263 266.444C418.705 267.939 511.84 248.816 602.772 239.658C693.865 230.49 788.829 230.839 884.789 229.196C929.181 228.432 983.014 223.482 1030.92 230.833C1041.75 232.471 1048.79 235.505 1061.05 236.618C1087.94 239.058 1129.96 241.814 1140.7 229.414C1149.47 219.318 1137.07 203.797 1142.02 192.57C1149.52 175.559 1184.44 165.343 1216.23 161.741C1233.8 159.743 1266.97 157.511 1283.72 165.817C1310.61 179.145 1330.43 202.831 1357.24 217.228C1397.87 239.058 1501.6 235.44 1544.81 236.329C1628.57 238.037 1711.08 236.329 1793.04 234.605" stroke="#424242" stroke-width="1.5" stroke-miterlimit="10"/>
<path d="M-259.26 144.833C-192.479 140.849 -133.482 151.595 -72.8232 179.854C-28.4681 200.517 -11.5113 206.858 38.8985 208.332C93.4962 209.925 179.014 210.815 232.286 231.728C282.615 251.49 305.415 278.789 368.183 279.171C460.901 279.717 547.16 261.232 632.279 251.55C708.295 242.9 785.201 242.207 866.78 242.431C931.789 242.605 996.934 243.26 1062.05 243.713C1089.66 243.91 1135.15 249.034 1147.15 235.794C1156.02 226.014 1143.14 210.935 1148.94 200.184C1157.83 183.735 1191.6 174.244 1223.81 171.1C1241.76 169.354 1274.97 167.744 1291.68 176.143C1318.81 189.787 1338.46 213.762 1365.54 228.454C1406.23 250.524 1509.91 247.457 1553.46 248.543C1637.35 250.639 1720 249.247 1802.1 247.855" stroke="#424242" stroke-width="1.5" stroke-miterlimit="10"/>
<path d="M-259.883 162.128C-193.86 158.521 -136.805 170.025 -78.405 198.546C-34.7841 219.831 -18.4559 226.156 32.0784 227.368C89.7998 228.759 176.581 228.279 234.315 248.287C286.984 266.542 315.29 293.497 377.436 293.694C465.045 293.972 545.554 275.525 625.098 265.314C694.207 256.451 763.746 255.234 838.635 255.245C915.23 255.245 988.328 251.785 1063.51 249.787C1091.44 249.045 1140.45 254.607 1152.93 241.159C1161.76 231.641 1149.12 216.917 1155.08 206.476C1164.27 190.387 1198.55 181.584 1230.53 178.91C1248.88 177.376 1281.96 176.329 1298.76 184.913C1326.19 198.901 1345.65 223.296 1373.04 238.337C1413.9 260.768 1517.32 258.203 1561.4 259.486C1645.4 261.941 1728.17 260.861 1810.4 259.775" stroke="#424242" stroke-width="1.5" stroke-miterlimit="10"/>
<path d="M-255.421 173.3C-190.046 169.774 -134.571 181.639 -77.4529 210.062C-34.305 231.526 -17.6718 237.661 32.6385 238.905C92.7743 240.39 180.172 239.571 240.78 259.262C294.227 276.628 325.894 303.981 387.405 304.407C473.551 304.996 552.212 286.397 629.467 275.618C694.705 266.537 760.143 264.823 831.442 264.703C912.119 264.594 990.848 262.132 1070.67 260.637C1098.67 260.091 1147.58 265.576 1160.04 252.096C1168.88 242.529 1156.31 227.804 1162.41 217.337C1171.79 201.215 1206.31 192.417 1238.44 189.749C1256.87 188.215 1290.13 187.151 1307 195.752C1334.52 209.74 1354.11 234.13 1381.59 249.171C1422.59 271.612 1526.08 269.025 1570.27 270.313C1654.36 272.758 1737.26 271.672 1819.58 270.581" stroke="#424242" stroke-width="1.5" stroke-miterlimit="10"/>
<path d="M-260.829 184.711C-197.277 181.262 -144.614 193.444 -90.7321 221.823C-48.6296 244.008 -33.216 249.629 17.144 250.748C82.818 252.222 172.512 251.179 239.505 270.499C296.206 286.872 335.8 314.989 398.388 315.109C478.306 315.262 549.941 296.401 619.915 284.65C677.045 275.061 733.877 272.3 797.597 271.787C886.967 271.045 977.594 273.79 1067.84 274.98C1097.43 275.373 1149.61 281.529 1162.81 267.459C1171.95 257.739 1165.92 242.807 1172.34 232.176C1182.18 215.803 1210.88 206.711 1243.51 203.824C1262 202.187 1295.82 200.811 1312.9 209.347C1340.59 223.176 1360.82 247.375 1388.42 262.247C1429.83 284.547 1533.64 281.687 1578.01 282.877C1662.4 285.142 1745.59 283.903 1828.21 282.658" stroke="#424242" stroke-width="1.5" stroke-miterlimit="10"/>
<path d="M-265.72 193.231C-203.568 189.847 -153.338 202.323 -102.064 230.599C-60.8882 253.302 -46.0596 258.541 4.25064 259.606C74.3801 261.09 166.04 259.9 238.061 278.871C297.257 294.458 342.602 322.892 406.191 323.077C481.66 323.306 548.304 304.041 612.41 291.369C662.988 281.37 712.639 277.725 770.341 276.884C867.664 275.509 966.486 282.702 1065.54 285.867C1096.11 286.844 1150.4 293.508 1164.14 279.035C1173.48 269.211 1167.74 254.115 1174.37 243.364C1184.57 226.817 1213.62 217.457 1246.66 214.384C1265.2 212.66 1299.46 211.028 1316.72 219.536C1344.54 233.24 1365.26 257.297 1392.96 272.038C1434.69 294.228 1538.75 291.139 1583.27 292.264C1667.9 294.381 1751.28 293.022 1834.15 291.652" stroke="#424242" stroke-width="1.5" stroke-miterlimit="10"/>
<path d="M-259.765 203.284C-195.236 200.129 -141.148 213.533 -85.5299 241.301C-42.1331 262.968 -25.699 269.227 24.9784 270.275C91.6044 271.651 180.669 269.44 249.112 287.92C306.66 303.463 347.698 330.805 410.28 331.034C487.546 331.34 556.58 312.026 623.157 299.872C676.908 290.048 730.031 286.866 790.615 286.168C841.703 285.578 894.185 283.805 948.092 290.643C981.19 294.84 1013.47 301.689 1046.5 304.036C1079.38 306.372 1145.08 297.929 1162.86 284.612C1176.5 274.396 1180.28 263.535 1191.18 252.172C1207.17 235.521 1219.8 232.754 1255.9 228.967C1274.12 227.051 1307.61 224.443 1325.26 233.027C1352.69 246.377 1373.39 270.139 1400.69 284.53C1442.16 306.421 1546.23 302.802 1590.18 303.703C1674.56 305.438 1757.68 303.752 1840.26 302.066" stroke="#424242" stroke-width="1.5" stroke-miterlimit="10"/>
<path d="M-250.935 212.414C-180.432 209.729 -115.735 224.459 -50.7266 251.708C-3.397 271.558 21.195 280.061 72.6004 280.737C129.917 281.49 213.326 277.397 272.304 294.725C324.519 310.066 353.243 334.494 412.19 334.664C496.003 334.904 571.758 316.408 646.367 305.236C708.401 295.958 770.466 293.825 838.729 293.563C867.104 293.453 1000.09 288.367 1026.38 307.174C1040.92 317.543 1030.42 326.783 1055.31 334.762C1087.38 345.038 1099.05 337.529 1117.94 328.251C1176.43 299.5 1178.3 263.153 1265.81 249.793C1284.03 247.741 1320.72 242.338 1339.4 251.266C1365.78 263.868 1386.33 286.511 1412.62 300.128C1453.23 321.167 1557.55 316.299 1599.92 316.714C1683.64 317.532 1766.04 315.076 1847.91 312.593" stroke="#424242" stroke-width="1.5" stroke-miterlimit="10"/>
<path d="M-244.83 219.514C-169.654 217.211 -98.4046 233.115 -26.9435 259.78C22.7507 278.336 51.6736 288.274 103.944 288.793C154.746 289.295 234.726 283.821 286.94 300.254C336.161 315.769 356.192 338.096 414.019 338.276C501.504 338.549 581.521 320.266 660.729 309.87C728.556 300.958 796.806 299.615 870.508 299.615C893.743 299.615 1023.26 296.122 1024.62 319.475C1025.32 331.394 1006.77 343.734 1024.43 357.596C1045.31 373.969 1081.95 358.748 1093.35 353.929C1165.64 323.426 1176.96 277.643 1274.85 264.354C1292.27 261.991 1330.51 255.392 1349.04 264.114C1374.74 276.208 1395.23 298.207 1420.85 311.316C1460.94 331.831 1565.33 326.095 1606.71 326.199C1689.99 326.401 1771.9 323.432 1853.32 320.436" stroke="#424242" stroke-width="1.5" stroke-miterlimit="10"/>
<path d="M-231.358 232.667C-158.323 230.271 -90.4396 245.454 -22.3823 272.878C25.8247 292.34 51.8728 301.509 103.676 302.076C156.015 302.622 237.202 297.492 290.979 314.247C341.021 329.834 363.417 352.592 421.536 352.799C497.994 353.066 566.039 336.852 634.028 326.646C697.2 317.167 762.457 314.918 831.909 314.318C858.803 314.088 984.582 301.962 1000.54 325.337C1009.25 338.053 986.853 351.2 1010.96 363.223C1039.78 377.609 1086.61 367.234 1103.75 360.025C1176.26 329.517 1184.71 292.351 1282.67 278.958C1300.05 276.584 1337.95 269.98 1356.49 278.696C1382.18 290.774 1402.68 312.79 1428.28 325.888C1468.38 346.403 1572.75 340.656 1614.14 340.749C1697.4 340.945 1779.3 337.965 1860.72 334.964" stroke="#424242" stroke-width="1.5" stroke-miterlimit="10"/>
<path d="M-211.968 244.374C-142.953 241.907 -81.479 256.015 -20.2293 284.623C24.5739 305.553 44.6544 313.412 95.4376 314.094C151.149 314.869 233.855 310.399 291.109 327.591C342.969 343.166 369.608 366.94 428.748 367.311C484.784 367.66 529.263 354.393 576.082 344.596C628.104 333.714 686.186 331.258 745.669 329.555C787.535 328.355 907.894 317.745 949.654 339.171C974.545 351.926 1000.98 372.141 1033.45 380.824C1072.72 391.319 1094.66 384.808 1120.63 373.876C1193.15 343.368 1192.19 306.83 1290.16 293.464C1307.55 291.09 1345.44 284.487 1363.98 293.197C1389.67 305.275 1410.17 327.29 1435.77 340.389C1475.87 360.904 1580.25 355.157 1621.63 355.255C1704.89 355.446 1786.8 352.472 1868.21 349.47" stroke="#424242" stroke-width="1.5" stroke-miterlimit="10"/>
<path d="M-254.195 263.055C-176.935 262.127 -115.243 274.734 -56.9367 305.204C-14.131 327.58 2.58302 334.396 59.5204 333.714C96.5328 333.266 133.116 332.131 169.475 330.641C199.443 329.419 232.61 325.375 265.136 330.881C284.663 334.194 299.908 340.951 317.705 346.163C347.02 354.758 374.163 357.373 404.729 357.585C455.263 357.94 498.013 351.762 544.484 347.271C605.298 341.387 672.745 343.559 737.386 343.559C800.739 343.559 864.185 341.54 929.355 356.45C973.785 366.618 1012.88 381.593 1059.6 388.235C1095.73 393.376 1155.03 400.242 1170.98 384.791C1182.5 373.636 1175.62 356.499 1181.62 344.045C1190.56 325.489 1215.74 312.331 1254.31 306.573C1275.42 303.424 1325.8 299.271 1347.72 306.612C1383.27 318.526 1409.14 340.23 1446.22 352.815C1508.72 374.024 1647.43 366.148 1711.21 365.837C1827.96 365.291 1943.26 361.602 2058.09 357.875" stroke="#424242" stroke-width="1.5" stroke-miterlimit="10"/>
<path d="M-244.948 289.338C-166.057 287.876 -103.022 301.405 -42.0584 331.58C2.59543 353.683 20.6785 361.302 78.3564 360.26C115.219 359.594 151.641 358.24 187.832 356.537C217.663 355.135 250.681 350.883 283.101 356.221C302.578 359.425 317.823 366.115 335.601 371.246C364.848 379.699 391.935 382.161 422.376 382.199C472.712 382.259 515.225 375.814 561.465 371.038C621.968 364.784 689.154 366.563 753.54 366.186C816.632 365.815 879.798 363.419 944.844 377.997C989.186 387.935 1028.26 402.725 1074.85 409.105C1110.89 414.049 1170.02 420.566 1185.73 404.995C1197.09 393.742 1190.09 376.616 1195.92 364.063C1204.63 345.399 1229.6 332.055 1267.95 326.057C1288.94 322.782 1339.07 318.313 1360.97 325.549C1396.5 337.289 1422.46 358.906 1459.52 371.317C1521.96 392.219 1660.03 383.509 1723.55 382.827C1839.81 381.577 1954.61 377.222 2068.91 372.812" stroke="#424242" stroke-width="1.5" stroke-miterlimit="10"/>
<path d="M-250.549 301.421C-169.318 299.839 -103.974 314.94 -39.9924 345.082C6.76467 367.114 26.9821 375.841 85.9108 374.782C122.768 374.116 159.189 372.763 195.386 371.06C225.211 369.657 258.235 365.406 290.649 370.744C310.126 373.947 325.378 380.638 343.156 385.768C372.433 394.222 399.489 396.683 429.931 396.722C480.26 396.782 522.773 390.336 569.014 385.555C629.516 379.301 696.709 381.086 761.088 380.709C824.186 380.338 887.346 377.942 952.398 392.519C996.741 402.457 1035.82 417.247 1082.4 423.627C1118.44 428.572 1177.57 435.088 1193.28 419.518C1204.64 408.264 1197.63 391.111 1203.47 378.586C1212.18 359.921 1237.15 346.577 1275.5 340.58C1296.49 337.305 1346.62 332.835 1368.52 340.072C1404.05 351.811 1430.02 373.429 1467.07 385.839C1529.51 406.742 1667.59 398.031 1731.1 397.349C1847.36 396.099 1962.16 391.744 2076.46 387.335" stroke="#424242" stroke-width="1.5" stroke-miterlimit="10"/>
<path d="M-240.449 316.981C-160.389 315.371 -94.727 330.019 -31.7723 359.921C14.3687 381.828 34.8849 390.347 93.3033 389.256C130.278 388.579 166.805 387.264 203.164 385.665C233.363 384.338 266.704 380.207 299.448 385.697C319.18 388.972 334.662 395.772 352.695 400.978C382.097 409.47 408.78 411.795 439.339 411.894C490.247 412.057 531.982 405.65 578.105 400.291C637.842 393.343 705.01 394.615 769.228 394.156C832.008 393.709 895.902 391.209 960.531 406.163C1004.74 416.412 1043.19 431.694 1089.89 438.243C1125.93 443.291 1185.09 449.611 1200.81 434.068C1212.18 422.809 1205.17 405.661 1211.01 393.136C1219.72 374.476 1244.68 361.127 1283.03 355.129C1304.03 351.855 1354.16 347.385 1376.06 354.622C1411.59 366.361 1437.55 387.984 1474.6 400.389C1537.05 421.292 1675.12 412.581 1738.64 411.899C1854.89 410.649 1969.69 406.294 2084 401.884" stroke="#424242" stroke-width="1.5" stroke-miterlimit="10"/>
<path d="M-175.435 347.32C-108.734 346.283 -49.7371 352.412 -0.522073 380.966C35.8743 402.081 49.9935 404.57 101.281 403.931C164.13 403.145 251.608 391.924 317.089 403.664C373.354 413.76 403.086 432.692 465.07 432.589C518.199 432.512 555.237 423.365 598.857 414.35C653.741 403.003 720.535 401.797 783.845 400.007C845.449 398.261 909.916 396.094 972.783 413.749C1016.01 425.892 1051.09 443.52 1098.23 451.543C1133.99 457.628 1192.61 464.144 1208.37 448.558C1219.74 437.304 1212.73 420.151 1218.57 407.626C1227.28 388.961 1252.24 375.617 1290.59 369.614C1311.59 366.339 1361.72 361.875 1383.62 369.112C1419.14 380.851 1445.11 402.468 1482.16 414.879C1544.61 435.781 1682.68 427.066 1746.2 426.383C1862.45 425.139 1977.25 420.779 2091.56 416.374" stroke="#424242" stroke-width="1.5" stroke-miterlimit="10"/>
<path d="M-105.492 379.012C-54.4228 378.433 1.15806 376.67 32.931 402.621C56.0482 421.504 65.208 418.879 109.364 418.639C175.573 418.274 267.003 408.717 335.539 421.914C394.032 433.173 428.02 454.343 492.388 453.857C548.224 453.437 580.482 441.015 620.736 428.321C670.343 412.674 736.086 408.505 799.165 405.203C859.786 402.026 924.657 400.351 985.453 420.811C1027.56 435.001 1058.99 454.998 1106.72 464.734C1142.06 471.943 1200.1 478.765 1215.9 463.097C1227.27 451.843 1220.26 434.717 1226.1 422.165C1234.81 403.5 1259.78 390.156 1298.13 384.158C1319.12 380.884 1369.25 376.414 1391.15 383.651C1426.68 395.39 1452.64 417.007 1489.7 429.418C1552.14 450.32 1690.21 441.61 1753.73 440.928C1869.99 439.678 1984.78 435.323 2099.09 430.913" stroke="#424242" stroke-width="1.5" stroke-miterlimit="10"/>
<path d="M-94.8514 396.967C-47.6774 396.421 10.9338 394.08 41.5867 418.377C63.9198 436.087 75.1269 433.358 116.763 433.113C183.681 432.72 276.063 423.671 345.303 437.189C404.287 448.694 438.642 470.055 503.452 469.586C559.773 469.182 591.502 456.722 631.595 443.651C680.754 427.639 746.422 423.093 809.6 419.703C869.662 416.483 935.298 414.726 995.403 435.339C1036.8 449.529 1067.03 469.526 1114.26 479.251C1149.56 486.526 1207.67 493.255 1223.44 477.614C1234.81 466.355 1227.79 449.234 1233.63 436.682C1242.34 418.017 1267.31 404.679 1305.66 398.675C1326.65 395.401 1376.79 390.931 1398.69 398.168C1434.21 409.907 1460.18 431.53 1497.24 443.935C1559.68 464.837 1697.75 456.127 1761.27 455.445C1877.52 454.195 1992.32 449.84 2106.63 445.43" stroke="#424242" stroke-width="1.5" stroke-miterlimit="10"/>
<path d="M-132.841 413.002C-76.8742 412.347 -19.6817 412.625 30.2241 433.527C65.6933 448.394 81.642 447.886 124.298 447.635C191.223 447.242 283.599 438.199 352.844 451.712C412.072 463.271 445.929 484.266 511.006 484.125C565.765 484.01 600.674 473.46 643.113 462.633C695.806 449.185 762.433 446.473 825.885 444.011C884.378 441.741 950.102 439.001 1009.67 457.388C1049.24 469.602 1078.74 487.093 1123.02 495.149C1158.26 501.551 1215.57 507.434 1230.99 492.153C1242.35 480.899 1235.34 463.773 1241.18 451.221C1249.89 432.556 1274.86 419.212 1313.21 413.214C1334.2 409.94 1384.34 405.47 1406.24 412.707C1441.76 424.446 1467.73 446.063 1504.78 458.474C1567.22 479.376 1705.3 470.661 1768.81 469.984C1885.07 468.734 1999.87 464.374 2114.17 459.969" stroke="#424242" stroke-width="1.5" stroke-miterlimit="10"/>
<path d="M-167.215 428.916C-103.495 428.152 -41.7224 430.875 20.4794 448.628C63.3411 460.864 87.0183 462.425 131.865 462.163C198.784 461.77 291.165 452.722 360.405 466.24C419.825 477.832 453.322 498.543 518.579 498.663C571.938 498.756 609.952 489.849 654.295 481.199C710.299 470.284 777.566 469.193 841.523 467.555C898.945 466.082 964.258 462.687 1023.45 478.869C1061.25 489.195 1090.24 504.334 1131.66 510.856C1166.8 516.39 1223.39 521.689 1238.55 506.664C1249.92 495.411 1242.91 478.285 1248.75 465.732C1257.46 447.068 1282.42 433.724 1320.77 427.726C1341.77 424.451 1391.9 419.982 1413.8 427.218C1449.32 438.958 1475.29 460.581 1512.34 472.986C1574.77 493.91 1712.84 485.178 1776.36 484.512C1892.61 483.262 2007.41 478.907 2121.72 474.497" stroke="#424242" stroke-width="1.5" stroke-miterlimit="10"/>
<path d="M-165.068 441.872C-100.975 440.857 -38.4119 443.558 25.0842 460.428C68.6429 471.992 92.9113 474.017 137.87 473.766C204.577 473.39 298.483 465.345 367.343 479.638C427.261 492.082 459.737 513.202 526.096 513.192C579.841 513.192 617.768 504.061 662.248 495.182C718.438 483.939 786.079 482.629 850.539 480.834C907.688 479.267 973.443 475.78 1032.21 492.436C1069.68 503.051 1097.72 518.524 1139.14 525.258C1174.25 530.961 1230.92 536.25 1246.08 521.231C1257.44 509.972 1250.43 492.851 1256.27 480.299C1264.98 461.639 1289.95 448.296 1328.3 442.292C1349.29 439.018 1399.42 434.548 1421.32 441.785C1456.85 453.524 1482.81 475.147 1519.87 487.552C1582.31 508.46 1720.39 499.744 1783.9 499.062C1900.16 497.818 2014.96 493.457 2129.26 489.047" stroke="#424242" stroke-width="1.5" stroke-miterlimit="10"/>
<path d="M-160.88 449.933C-97.9316 448.203 -35.985 449.835 27.6666 465.4C70.8892 475.965 95.8297 477.624 140.004 477.87C207.141 478.23 304.351 472.816 372.371 489.331C432.644 503.952 464.79 527.73 533.638 527.709C589.43 527.709 626.803 516.537 670.723 505.933C725.999 492.578 794.423 489.718 860.097 487.153C917.172 484.927 983.605 481.598 1041.31 500.661C1078.59 512.979 1104.34 530.432 1146.98 538.586C1181.86 545.255 1238.38 550.843 1253.62 535.742C1264.99 524.483 1257.98 507.363 1263.82 494.81C1272.53 476.146 1297.49 462.802 1335.84 456.804C1356.84 453.529 1406.97 449.06 1428.87 456.296C1464.39 468.036 1490.36 489.658 1527.42 502.063C1589.86 522.966 1727.93 514.256 1791.45 513.574C1907.7 512.329 2022.5 507.969 2136.81 503.559" stroke="#424242" stroke-width="1.5" stroke-miterlimit="10"/>
<path d="M-155.927 459.473C-94.0363 457.181 -32.3012 457.835 31.3131 472.418C74.2121 482.242 99.7624 483.732 143.321 484.266C210.899 485.096 310.754 481.952 378.021 500.208C438.288 516.581 470.446 542.231 541.173 542.231C598.702 542.231 635.44 529.581 678.937 517.672C733.559 502.713 802.407 498.472 869.207 495.296C926.313 492.567 993.412 489.326 1050.06 510.239C1087.15 523.932 1111.04 543.028 1154.7 552.35C1189.36 559.739 1245.85 565.448 1261.16 550.276C1272.52 539.022 1265.52 521.869 1271.35 509.344C1280.06 490.679 1305.03 477.335 1343.38 471.337C1364.38 468.063 1414.51 463.593 1436.4 470.83C1471.93 482.569 1497.9 504.192 1534.95 516.597C1597.4 537.5 1735.46 528.789 1798.99 528.107C1915.24 526.857 2030.04 522.502 2144.34 518.092" stroke="#424242" stroke-width="1.5" stroke-miterlimit="10"/>
<path d="M-148.497 473.782C-86.706 471.447 -24.9585 471.954 38.6309 486.515C81.5672 496.339 107.043 497.883 150.639 498.38C218.198 499.144 318.315 496.257 385.513 514.654C445.873 531.18 477.752 556.847 548.703 556.737C605.366 556.65 642.466 544.682 686.174 533.39C741.12 519.2 809.768 515.653 876.009 512.744C933.151 510.234 999.784 506.992 1057.02 527.048C1094.2 540.081 1119.02 558.358 1162.18 567.129C1196.94 574.196 1253.41 579.927 1268.7 564.776C1280.06 553.523 1273.06 536.397 1278.9 523.845C1287.61 505.185 1312.58 491.842 1350.93 485.838C1371.92 482.564 1422.05 478.094 1443.95 485.336C1479.48 497.075 1505.44 518.693 1542.5 531.098C1604.94 552.006 1743.01 543.29 1806.53 542.608C1922.79 541.363 2037.58 537.003 2151.89 532.599" stroke="#424242" stroke-width="1.5" stroke-miterlimit="10"/>
<path d="M-140.949 488.311C-79.1641 485.975 -17.4166 486.482 46.1728 501.038C89.1092 510.861 114.585 512.411 158.181 512.902C225.74 513.666 325.857 510.779 393.055 529.177C453.739 545.79 484.989 571.053 556.245 571.277C610.817 571.451 648.583 561.36 692.751 551.809C748.606 539.737 816.532 537.778 881.472 535.71C938.522 533.892 1004.68 530.438 1062.96 548.044C1100.38 559.341 1127.49 575.615 1169.37 582.89C1204.4 588.975 1261.01 594.351 1276.19 579.299C1287.56 568.046 1280.55 550.892 1286.39 538.367C1295.1 519.702 1320.06 506.359 1358.41 500.361C1379.41 497.086 1429.55 492.617 1451.44 499.853C1486.97 511.593 1512.94 533.21 1549.99 545.615C1612.43 566.523 1750.5 557.807 1814.02 557.125C1930.28 555.881 2045.07 551.52 2159.38 547.116" stroke="#424242" stroke-width="1.5" stroke-miterlimit="10"/>
<path d="M-133.413 502.833C-71.6223 500.497 -9.87476 501.005 53.7146 515.56C96.651 525.384 122.127 526.934 165.723 527.425C233.282 528.189 333.399 525.302 400.597 543.699C461.33 560.329 492.487 585.537 563.786 585.799C616.741 585.996 655.396 576.903 699.733 568.619C756.235 558.058 823.614 557.283 887.657 555.69C945.099 554.265 1010.12 550.903 1069.45 566.834C1106.93 576.892 1135.85 591.633 1176.79 597.975C1211.94 603.432 1268.58 608.857 1283.75 593.822C1295.11 582.568 1288.1 565.442 1293.94 552.89C1302.65 534.225 1327.62 520.881 1365.97 514.883C1386.96 511.609 1437.1 507.139 1459 514.376C1494.52 526.115 1520.49 547.732 1557.55 560.143C1619.99 581.045 1758.06 572.335 1821.57 571.653C1937.83 570.403 2052.63 566.048 2166.93 561.638" stroke="#424242" stroke-width="1.5" stroke-miterlimit="10"/>
</g>
<defs>
<clipPath id="clip0_73_156">
<rect width="2514" height="604" fill="white" transform="translate(-347)"/>
</clipPath>
</defs>
</svg>
